<svg width="20" height="15" viewBox="0 0 20 15" fill="none" xmlns="http://www.w3.org/2000/svg">
<path d="M8.41629 14.2653C9.02715 13.8444 9.52941 13.4847 9.53846 13.4694C9.54751 13.4502 8.53394 12.3788 7.28507 11.0893L5.01357 8.7436L12.5068 8.73213L20 8.72447L20 7.49998L20 6.27549L12.5068 6.26784L5.01358 6.25636L7.28507 3.9107C8.53394 2.62116 9.54751 1.54973 9.53846 1.53059C9.51584 1.4732 7.31222 -0.0344561 7.27602 -0.0153235C7.21267 0.0191153 0.0226243 7.46554 0.0226243 7.49998C0.0226243 7.53442 7.21267 14.9808 7.27602 15.0153C7.29412 15.0229 7.80995 14.6862 8.41629 14.2653Z" fill="white"/>
</svg>
