<svg width="20" height="15" viewBox="0 0 20 15" fill="none" xmlns="http://www.w3.org/2000/svg">
<path d="M11.5837 0.734711C10.9728 1.15563 10.4706 1.51532 10.4615 1.53063C10.4525 1.54976 11.4661 2.62119 12.7149 3.91073L14.9864 6.25639L7.49321 6.26787L0 6.27553V7.50002V8.72451L7.49321 8.73216L14.9864 8.74364L12.7149 11.0893C11.4661 12.3788 10.4525 13.4503 10.4615 13.4694C10.4842 13.5268 12.6878 15.0345 12.724 15.0153C12.7873 14.9809 19.9774 7.53446 19.9774 7.50002C19.9774 7.46558 12.7873 0.0191498 12.724 -0.0152893C12.7059 -0.0229416 12.19 0.313793 11.5837 0.734711Z" fill="white"/>
</svg>
