<svg width="23" height="25" viewBox="0 0 23 25" fill="none" xmlns="http://www.w3.org/2000/svg">
<path d="M10.3281 0.0732422C7.4375 0.566406 5.15723 2.65625 4.44434 5.46875C4.10254 6.81152 4.15137 7.91504 4.61523 9.35059C5.40625 11.8213 7.44238 15.6104 10.1816 19.7021C11.3145 21.3965 11.4756 21.626 11.5 21.626C11.5244 21.626 11.6855 21.3965 12.8184 19.7021C15.2646 16.0449 17.2617 12.4316 18.1553 10.0342C18.7412 8.4668 18.8975 7.30957 18.6875 6.07422C18.1553 2.94922 15.7627 0.585938 12.623 0.0683594C12.1104 -0.0146484 10.8311 -0.00976562 10.3281 0.0732422ZM12.1348 2.22168C13.082 2.30957 14.2197 2.84668 15.0107 3.58887C15.499 4.04297 16.0361 4.85352 16.2705 5.49316C16.5342 6.20605 16.6465 7.2168 16.5342 7.82227C16.2119 9.52637 14.4736 13.0127 11.998 16.9287C11.7344 17.3389 11.5146 17.6758 11.5 17.6758C11.4854 17.6758 11.2656 17.3389 11.002 16.9287C8.52148 13.0078 6.78808 9.53125 6.46582 7.82227C6.35351 7.2168 6.46582 6.20605 6.72949 5.49316C6.96387 4.85352 7.50098 4.04297 7.98926 3.58887C8.58496 3.03223 9.4248 2.55859 10.1865 2.34863C10.5869 2.23633 11.3096 2.14844 11.6221 2.17773C11.7295 2.1875 11.959 2.20703 12.1348 2.22168Z" fill="#D1D1D1"/>
<path d="M11.0654 4.93652C10.0986 5.12695 9.35156 6.03516 9.35156 7.03125C9.35156 7.87598 9.83496 8.63281 10.6064 8.99902C10.9189 9.14551 10.9678 9.15527 11.5 9.15527C12.0322 9.15527 12.0811 9.14551 12.3936 8.99902C13.165 8.63281 13.6484 7.87598 13.6484 7.03125C13.6484 5.68848 12.3984 4.67285 11.0654 4.93652Z" fill="#D1D1D1"/>
<path d="M16.6025 16.0301C16.4707 16.3816 16.0068 18.0516 16.0312 18.0711C16.0508 18.0906 16.3389 18.1834 16.6758 18.2859C18.1504 18.7205 19.083 19.1697 19.6006 19.6824C20.0205 20.1023 20.0254 20.3611 19.6152 20.7713C18.8047 21.5867 16.9443 22.2703 14.6543 22.6072C12.7451 22.8855 10.3623 22.8953 8.39941 22.6268C7.30078 22.4803 5.93359 22.1482 5.16211 21.8455C3.96582 21.3719 3.08203 20.7127 3.08203 20.2879C3.08203 19.7215 4.16602 19.0184 5.92871 18.4373C6.44141 18.2713 6.87598 18.1199 6.89062 18.1004C6.91016 18.0809 6.78809 17.6072 6.6123 17.0408C6.30469 16.0301 6.2998 16.0203 6.17773 16.0496C5.82129 16.1326 4.27832 16.6746 3.83398 16.8699C1.31934 17.9832 0.318359 19.7068 1.16797 21.4598C2.06641 23.3103 5.2207 24.6189 9.5957 24.9559C10.6016 25.0291 13.2432 24.99 14.1611 24.8777C17.0225 24.5408 19.2539 23.823 20.6406 22.7928C22.4131 21.4793 22.6279 19.5603 21.1582 18.1297C20.3965 17.3875 19.4785 16.8894 17.9453 16.3865C16.7441 15.991 16.627 15.9617 16.6025 16.0301Z" fill="#D1D1D1"/>
</svg>
