<svg width="25" height="17" viewBox="0 0 25 17" fill="none" xmlns="http://www.w3.org/2000/svg">
<path d="M0.844727 0.213867C0.541992 0.326172 0.263672 0.570312 0.131836 0.838867L0 1.09766V8.49512C0 15.6094 0.00488281 15.9072 0.0927734 16.0977C0.205078 16.3467 0.458984 16.6055 0.712891 16.7324C0.898438 16.8252 1.12793 16.8252 12.5 16.8252C23.8721 16.8252 24.1016 16.8252 24.2871 16.7324C24.541 16.6055 24.7949 16.3467 24.9072 16.0977C24.9951 15.9072 25 15.6094 25 8.5C25 1.39062 24.9951 1.09277 24.9072 0.902344C24.7949 0.65332 24.541 0.394531 24.2871 0.267578C24.1016 0.174805 23.8623 0.174805 12.5488 0.165039C3.79395 0.160156 0.961914 0.169922 0.844727 0.213867ZM23.0957 1.19531C22.8955 1.38086 13.1836 8.62695 13.0371 8.7002C12.9443 8.74414 12.7686 8.79785 12.6465 8.8125C12.1436 8.88574 12.3242 9.00781 6.93359 4.96484C4.17969 2.89941 1.90918 1.19043 1.88477 1.1709C1.85547 1.14648 6.5332 1.12695 12.5 1.12695C21.5576 1.12695 23.1543 1.13672 23.0957 1.19531ZM6.11816 5.62891C9.25293 7.9873 11.333 9.51562 11.543 9.62305C11.8799 9.78906 11.8945 9.79395 12.4951 9.79395C13.0811 9.79395 13.125 9.78906 13.4277 9.64258C13.6377 9.54492 15.5273 8.1582 18.8721 5.64844L23.999 1.80566L24.0137 5.12598C24.0186 6.95703 24.0186 9.94531 24.0137 11.7666L23.999 15.082L21.2988 11.7471C19.3848 9.38379 18.5547 8.39258 18.4521 8.35352C18.3398 8.30469 18.2617 8.30469 18.1152 8.34863C17.7832 8.44629 17.6709 8.82715 17.8857 9.13965C17.9492 9.23242 19.1895 10.7754 20.6494 12.5771L23.2959 15.8486L17.9004 15.8633C14.9316 15.8682 10.0684 15.8682 7.09961 15.8633L1.7041 15.8486L4.35059 12.5771C5.81055 10.7754 7.05078 9.23242 7.11426 9.13965C7.3291 8.82715 7.2168 8.44629 6.88477 8.34863C6.73828 8.30469 6.66016 8.30469 6.54785 8.35352C6.44531 8.39258 5.625 9.36914 3.75 11.6885C2.29004 13.4902 1.07422 14.9941 1.04004 15.0381C0.991211 15.1016 0.981445 13.7051 0.976562 8.46094C0.976562 4.80371 0.986328 1.81055 1.00098 1.81055C1.01562 1.81055 3.31543 3.5293 6.11816 5.62891Z" fill="#D1D1D1"/>
</svg>
