<svg width="25" height="25" viewBox="0 0 25 25" fill="none" xmlns="http://www.w3.org/2000/svg">
<path d="M3.67639 0.0678482C3.56409 0.106911 3.36389 0.194801 3.23694 0.268044C2.97815 0.419411 1.65491 1.72312 1.32776 2.15281C0.639281 3.06101 0.199828 4.14011 0.0435777 5.31199C-0.0394301 5.93211 0.0142808 7.50925 0.141234 8.11961C0.736937 11.0151 2.26526 13.9106 4.77502 16.894C5.43909 17.6802 7.31897 19.56 8.1051 20.2241C11.0787 22.729 14.0377 24.2915 16.8697 24.853C17.6364 25.0093 19.1061 25.0434 19.8483 24.9262C20.7955 24.7798 21.6989 24.438 22.4606 23.9399C23.2516 23.4223 24.5553 22.1186 24.819 21.5864C24.9655 21.2837 24.9752 21.2397 24.9752 20.7026C24.9752 19.7602 25.0631 19.8823 22.6364 17.4409C20.1852 14.9751 20.3024 15.063 19.36 15.063C18.4908 15.063 18.4518 15.0874 17.0895 16.4302C16.484 17.0259 15.9225 17.5532 15.8395 17.5923C15.6051 17.7143 15.317 17.7436 15.1071 17.6753C14.6627 17.5288 12.9391 16.3276 11.8893 15.4292C11.2008 14.8432 10.1559 13.7983 9.56994 13.1098C8.67151 12.06 7.47034 10.3364 7.32385 9.89207C7.25549 9.68211 7.28479 9.39402 7.40686 9.15965C7.44592 9.07664 7.97326 8.51511 8.56897 7.90965C9.91174 6.54734 9.93616 6.50828 9.93616 5.63914C9.93616 4.69675 10.024 4.81394 7.55823 2.36277C5.15588 -0.0249252 5.23889 0.0336685 4.36975 0.0141373C4.06213 0.00437164 3.80823 0.0239029 3.67639 0.0678482ZM4.80432 1.12742C4.85803 1.15672 5.77112 2.0405 6.83069 3.09519C8.1051 4.36472 8.77893 5.06785 8.84241 5.19968C8.95471 5.43894 8.95959 5.80027 8.85705 6.04441C8.81311 6.1616 8.3883 6.62058 7.69494 7.32371C6.49377 8.53465 6.38147 8.69578 6.28381 9.33543C6.18127 9.97996 6.33752 10.4145 7.04065 11.479C7.94885 12.8413 8.77893 13.8569 9.93616 15.0141C11.108 16.1909 12.109 17.0112 13.5055 17.9438C14.5944 18.6665 15.0533 18.8276 15.7125 18.7055C16.3375 18.5884 16.4791 18.4907 17.6754 17.3091C18.2809 16.7085 18.8424 16.186 18.9303 16.1421C19.15 16.0346 19.5895 16.0395 19.8141 16.1567C20.0826 16.2983 23.8033 20.0483 23.901 20.2729C24.0035 20.5219 23.9938 20.9126 23.8815 21.1323C23.7594 21.3667 22.3239 22.7778 21.9479 23.0317C20.9957 23.6714 19.9362 23.9741 18.6373 23.9741C17.8219 23.9741 17.1481 23.8813 16.2692 23.6518C10.151 22.06 2.93909 14.8481 1.34729 8.72996C1.1178 7.85105 1.02502 7.17722 1.02502 6.36179C1.02502 5.58054 1.10803 5.00925 1.31799 4.38425C1.64514 3.41746 1.99182 2.90476 3.04162 1.86961C3.7301 1.18601 3.86194 1.07859 4.02795 1.04929C4.13537 1.02976 4.24768 1.01023 4.27209 1.00535C4.34045 0.985817 4.68225 1.06882 4.80432 1.12742Z" fill="#D1D1D1"/>
<path d="M13.0123 1.47905C12.7633 1.68901 12.8023 2.14311 13.0807 2.29447C13.1344 2.31889 13.4566 2.4019 13.8033 2.47026C17.7389 3.26615 20.9371 6.10795 22.192 9.93119C22.3727 10.4878 22.5143 11.0591 22.6266 11.7281C22.651 11.8453 22.7144 11.9527 22.8121 12.0357C22.9439 12.148 23.0025 12.1626 23.1881 12.1431C23.4859 12.1089 23.6324 11.9429 23.6324 11.6451C23.6324 11.3423 23.4225 10.3755 23.2174 9.72612C22.358 7.01615 20.6295 4.74076 18.2369 3.17338C17.1041 2.43119 15.5123 1.77201 14.1695 1.49369C13.4176 1.33256 13.1832 1.33256 13.0123 1.47905Z" fill="#D1D1D1"/>
<path d="M12.4068 4.09146C12.2017 4.29166 12.1969 4.56998 12.3922 4.78482C12.5045 4.91178 12.5875 4.94107 12.9635 5.00455C16.6012 5.62467 19.3746 8.3981 19.9947 12.0358C20.0582 12.4118 20.0875 12.4948 20.2144 12.6071C20.4293 12.8024 20.7076 12.7975 20.9078 12.5924C21.0543 12.446 21.0592 12.4411 21.0299 12.07C20.9908 11.5378 20.6978 10.4489 20.4098 9.75553C19.443 7.41178 17.5875 5.55631 15.2437 4.58951C14.5504 4.30142 13.4615 4.00845 12.9293 3.96939C12.5582 3.94009 12.5533 3.94498 12.4068 4.09146Z" fill="#D1D1D1"/>
<path d="M11.8111 6.68457C11.5376 6.95801 11.6646 7.46582 12.021 7.53906C12.0796 7.55371 12.3091 7.58789 12.524 7.61719C13.0366 7.69043 13.8423 7.95898 14.3404 8.22754C16.0103 9.11621 17.187 10.8203 17.4068 12.6709C17.4702 13.1787 17.5972 13.3301 17.9683 13.3301C18.2466 13.3301 18.4566 13.125 18.4566 12.8564C18.4566 12.2705 18.149 11.123 17.7974 10.3809C17.2017 9.12109 15.981 7.88574 14.7212 7.25586C14.1597 6.97266 13.3784 6.71875 12.7974 6.62109C12.1187 6.50879 11.982 6.51367 11.8111 6.68457Z" fill="#D1D1D1"/>
</svg>
