<svg width="20" height="15" viewBox="0 0 20 15" fill="none" xmlns="http://www.w3.org/2000/svg">
<path d="M11.5837 0.734833C10.9728 1.15575 10.4706 1.51545 10.4615 1.53075C10.4525 1.54988 11.4661 2.62131 12.7149 3.91085L14.9864 6.25652L7.49321 6.268L0 6.27565V7.50014V8.72463L7.49321 8.73228L14.9864 8.74376L12.7149 11.0894C11.4661 12.379 10.4525 13.4504 10.4615 13.4695C10.4842 13.5269 12.6878 15.0346 12.724 15.0154C12.7873 14.981 19.9774 7.53458 19.9774 7.50014C19.9774 7.4657 12.7873 0.0192719 12.724 -0.0151672C12.7059 -0.0228195 12.19 0.313915 11.5837 0.734833Z" fill="#303036"/>
</svg>
