<svg width="20" height="20" viewBox="0 0 20 20" fill="none" xmlns="http://www.w3.org/2000/svg">
<path d="M8.35938 0.999998C8.28516 1.00781 8.05859 1.03515 7.85938 1.05859C6.33203 1.23437 4.81641 1.84765 3.55469 2.78906C3.10156 3.125 2.34766 3.85156 2.00391 4.27734C1.19141 5.28515 0.5625 6.54297 0.257812 7.76953C0.046875 8.60937 0.0195312 8.85547 0.0195312 10C0.0195312 11.1445 0.046875 11.3906 0.257812 12.2305C0.542969 13.3828 1.10156 14.5352 1.84766 15.5273C2.17578 15.9609 3.10938 16.8828 3.55469 17.2148C4.78906 18.1289 6.16797 18.6953 7.71484 18.9297C8.36328 19.0273 9.64453 19.0273 10.293 18.9297C12.8828 18.5391 15.0781 17.1562 16.5195 15.0078C17.4258 13.6562 18.0078 11.8125 18.0078 10.293V10H16.9922H15.9766V10.2031C15.9766 10.7617 15.8203 11.6055 15.6055 12.2578C14.4961 15.5664 11.0352 17.543 7.58594 16.832C4.33203 16.1641 2.03125 13.3359 2.03125 10C2.03125 8.21094 2.67578 6.55078 3.87109 5.26172C4.88672 4.16406 6.10938 3.48047 7.60156 3.16406C9.06641 2.85547 10.668 3.05469 12.082 3.72265C12.3281 3.83594 12.5156 3.90625 12.5352 3.88281C12.6367 3.76562 13.5117 2.21484 13.4922 2.18359C13.457 2.12109 12.707 1.76172 12.2383 1.57812C11.6953 1.36328 10.9102 1.16015 10.3125 1.07422C9.88281 1.01172 8.64844 0.964842 8.35938 0.999998Z" fill="white"/>
<path d="M14.2891 6.27734L10 10.5664L8.20312 8.76953L6.40625 6.97266L5.69531 7.6875L4.98047 8.39844L7.49219 10.9102L10 13.418L15.0078 8.41016L20.0195 3.39844L19.3164 2.69531C18.9297 2.30859 18.6055 1.99219 18.5938 1.99219C18.582 1.99219 16.6445 3.92188 14.2891 6.27734Z" fill="white"/>
</svg>
