<svg width="22" height="17" viewBox="0 0 22 17" fill="none" xmlns="http://www.w3.org/2000/svg">
<path d="M19.6925 0.0696507C19.5937 0.0881901 19.4519 0.13917 19.3702 0.180882C19.2929 0.227228 16.8007 2.87359 13.8359 6.07146L8.44328 11.8833L5.60734 8.81978C2.52648 5.49214 2.57375 5.53385 2.10539 5.53385C1.69719 5.53385 1.47805 5.68216 0.78625 6.42833C0.0901565 7.17913 0.00421904 7.33671 -7.78359e-05 7.8048C-7.78359e-05 8.37022 -0.167656 8.1663 4.00031 12.6572C7.13703 16.0312 7.83312 16.7635 8.0093 16.8469C8.28 16.972 8.64523 16.9767 8.89875 16.8515C9.04484 16.782 10.6175 15.1089 15.4987 9.83939C22.5027 2.27109 21.9999 2.85505 21.9999 2.28963C21.9956 1.87715 21.8882 1.68713 21.2351 0.978033C20.5948 0.278208 20.423 0.134535 20.1694 0.0881901C20.0749 0.0696507 19.9718 0.0511131 19.9374 0.0418434C19.903 0.0372086 19.7913 0.0464783 19.6925 0.0696507Z" fill="white"/>
</svg>
