<svg width="46" height="46" viewBox="0 0 46 46" fill="none" xmlns="http://www.w3.org/2000/svg">
<path d="M22.2453 0.233532L22.0117 0.47611V2.91986V5.36361L22.2363 5.5972C22.6945 6.04642 23.4672 5.9476 23.7367 5.39056C23.8805 5.12103 23.8984 4.7976 23.8984 2.93783C23.8984 0.206579 23.8266 -6.1512e-05 22.8832 -6.1512e-05C22.5687 -6.1512e-05 22.434 0.0538449 22.2453 0.233532Z" fill="#F49D1A"/>
<path d="M7.79844 0.323409C7.44805 0.512081 7.25039 0.934347 7.32227 1.33864C7.36719 1.60817 7.67266 1.95857 9.10117 3.39607C10.0535 4.35739 10.934 5.19294 11.0687 5.26482C11.9402 5.72302 12.8207 4.84255 12.3625 3.97107C12.1648 3.60271 8.88555 0.3863 8.59805 0.278487C8.26563 0.152706 8.09492 0.16169 7.79844 0.323409Z" fill="#F49D1A"/>
<path d="M37.2762 0.251477C36.9887 0.377258 33.6016 3.73741 33.4578 4.02491C33.0625 4.86046 33.934 5.69601 34.7516 5.26476C35.102 5.07609 38.4172 1.69796 38.498 1.45538C38.5969 1.13195 38.4801 0.682727 38.2375 0.458118C38.0129 0.251477 37.5187 0.143665 37.2762 0.251477Z" fill="#F49D1A"/>
<path d="M18.957 7.60072C18.5168 7.81635 18.3551 7.8433 17.4746 7.85228C16.666 7.86127 16.4145 7.89721 16.073 8.04994C14.8422 8.62494 14.1055 9.89174 14.2223 11.2484C14.2672 11.7515 14.2492 11.8593 14.1414 11.8593C13.8898 11.8593 13.1082 12.3175 12.7488 12.6769C12.5422 12.8835 12.2727 13.2699 12.1379 13.5574C11.9402 13.9976 11.9043 14.1773 11.9043 14.932C11.9043 15.6687 11.8773 15.8124 11.7605 15.8124C11.482 15.8124 10.6914 16.2796 10.35 16.657C9.88281 17.1691 9.6582 17.6093 9.52344 18.3101C9.39766 18.939 9.50547 19.7386 9.79297 20.3046L9.95469 20.6191L9.62227 20.7718C9.03828 21.0503 8.56211 21.5355 8.24766 22.1734C7.97813 22.7214 7.95117 22.8382 7.95117 23.6288C7.95117 24.5902 8.10391 25.0484 8.625 25.6413L8.92149 25.9738L7.46602 27.4382L6.00156 28.9027L5.5793 28.7769C5.31875 28.696 4.92344 28.6601 4.49219 28.6781C3.46797 28.732 2.95586 29.0464 1.59023 30.457C0.269531 31.8046 0.0628905 32.191 0.0628905 33.3589C0.0628905 34.437 0.332422 34.8863 1.86875 36.4136C2.98281 37.5277 3.15352 37.6624 3.48594 37.7074C3.95313 37.7703 4.27656 37.5816 4.45625 37.1324C4.67188 36.6292 4.51914 36.3687 3.31523 35.1738C2.72227 34.5808 2.17422 33.9878 2.10234 33.8531C2.03047 33.7183 1.97656 33.4398 1.97656 33.2331C1.97656 32.8648 2.02148 32.8109 3.09961 31.7238L4.21367 30.5917H4.65391C5.03125 30.5917 5.14805 30.6367 5.53438 30.9691C5.77695 31.1757 8.10391 33.4757 10.7094 36.0902C13.8539 39.2437 15.4621 40.9148 15.498 41.0855C15.6418 41.6425 15.498 41.8761 14.348 43.0171C13.2609 44.0863 13.225 44.1132 12.8387 44.1132C12.6141 44.1132 12.3355 44.0503 12.2188 43.9695C12.093 43.8886 11.482 43.3046 10.8441 42.6847C9.71211 41.5706 9.69414 41.5527 9.28984 41.5527C8.93945 41.5527 8.84063 41.5976 8.60703 41.8581C8.36445 42.1277 8.3375 42.2085 8.38242 42.5679C8.42734 42.9632 8.49023 43.0441 9.75703 44.3019C11.3652 45.8831 11.6617 46.0359 12.9375 45.982C14.0516 45.937 14.357 45.7574 15.7766 44.3468C17.1422 42.9722 17.3488 42.6398 17.4117 41.5706C17.4477 41.0046 17.4207 40.78 17.25 40.3308L17.0523 39.7738L18.7863 38.0308C20.0891 36.7371 20.6102 36.2699 20.8438 36.207C21.0324 36.1531 21.9488 36.1441 23.1977 36.18L25.2281 36.2339L27.043 38.0488L28.8578 39.8726L28.7051 40.3398C28.4895 40.9867 28.5523 42.0288 28.8398 42.6398C29.1363 43.2597 31.2566 45.389 31.8316 45.6406C32.775 46.0628 33.8441 46.0359 34.6887 45.5777C35.2637 45.2722 45.3711 35.1378 45.6406 34.5988C45.9102 34.0597 46.018 33.2871 45.9102 32.6941C45.7484 31.8496 45.4879 31.4632 44.302 30.2593C42.8645 28.8128 42.4871 28.6152 41.2832 28.6242C40.7531 28.6242 40.3668 28.6781 40.1512 28.7679L39.8277 28.9117L38.3813 27.4562L36.9258 26.0097L37.2402 25.6234C37.7434 24.9765 37.941 24.3476 37.8961 23.4492C37.8691 22.8742 37.8063 22.5687 37.6445 22.2363C37.3391 21.5984 36.6203 20.9066 36.0363 20.691L35.5512 20.5113L35.5422 19.6667C35.5332 18.957 35.4973 18.7413 35.2996 18.3281C34.9852 17.6632 34.4191 17.1062 33.7184 16.7828L33.1344 16.5042L33.1973 16.073C33.2781 15.5249 33.1074 14.7253 32.8109 14.1683C32.5055 13.6023 31.8227 12.9913 31.2566 12.7757L30.8074 12.614L30.7895 11.7156C30.7715 10.889 30.7445 10.7812 30.466 10.2601C29.9 9.22689 29.1184 8.74174 27.8066 8.61596C27.3664 8.58002 25.7223 8.29252 24.168 7.99603C22.2273 7.60971 21.0414 7.43002 20.3945 7.40306C19.5051 7.35814 19.4242 7.37611 18.957 7.60072ZM22.5059 9.61322C23.593 9.81986 24.5543 10.0085 24.6441 10.0445C24.7699 10.0984 24.5992 10.314 23.6828 11.2214L22.5688 12.3355L21.9848 11.9222C21.0414 11.2484 19.9453 9.90072 19.9453 9.40658C19.9453 9.18197 20.2598 9.19994 22.5059 9.61322ZM17.8609 9.81986C17.9867 9.88275 18.1574 10.1343 18.2742 10.4218C18.6516 11.3562 19.7387 12.6769 20.7539 13.4406C21.1402 13.7281 22.2273 14.2851 22.407 14.2851C22.5867 14.2851 22.7664 14.8601 22.7035 15.2374C22.6316 15.6777 22.3352 16.0371 21.9129 16.2078C21.1762 16.5042 21.1313 16.4773 18.5797 13.9437C16.1898 11.5718 16.0012 11.3292 16.118 10.7722C16.2797 9.95463 17.1871 9.46049 17.8609 9.81986ZM28.3906 10.7453C28.9117 11.1855 29.0645 11.7874 28.8039 12.2906C28.732 12.4253 28.2648 12.9374 27.7617 13.4316C26.7824 14.3929 26.5938 14.6624 26.5938 15.0847C26.5938 15.6417 27.3035 16.1179 27.8695 15.9472C27.9773 15.9023 28.3906 15.5699 28.768 15.2015C29.4059 14.5816 29.4957 14.5277 29.9 14.4828C30.7086 14.4109 31.2656 14.914 31.2656 15.7316C31.2656 16.2437 31.068 16.5312 29.882 17.6902C29.3699 18.2023 29.0016 18.6425 28.9746 18.7863C28.8938 19.1367 29.1363 19.6398 29.4598 19.8015C29.9988 20.08 30.3402 19.9542 31.0859 19.1816C31.6699 18.5796 31.9484 18.4179 32.3887 18.4179C33.1883 18.4179 33.7902 19.1456 33.6465 19.9183C33.6016 20.1699 33.368 20.4663 32.5594 21.2929C31.4273 22.4519 31.2926 22.7124 31.5711 23.2515C31.7508 23.6019 31.9664 23.7187 32.4336 23.7187C32.766 23.7187 32.8738 23.6648 33.359 23.1976C34.1227 22.4788 34.3023 22.371 34.7605 22.371C35.6949 22.371 36.3238 23.3503 35.9016 24.1499C35.8297 24.2847 35.2637 24.8956 34.6438 25.5156C33.4129 26.7374 33.2512 27.007 33.4219 27.5371C33.5566 27.9503 33.8172 28.121 34.3293 28.121C34.6887 28.121 34.8055 28.0671 35.1648 27.7437L35.5961 27.3753L36.9977 28.7769L38.4082 30.1874L34.3023 34.2933L30.1875 38.4081L28.75 36.9706L27.3215 35.5421L28.0762 34.7605C28.8039 34.0238 28.8398 33.9609 28.8398 33.5835C28.8398 33.1433 28.6332 32.8468 28.2289 32.6941C27.8246 32.5413 27.4922 32.6941 26.7645 33.3859C25.7941 34.3113 25.6863 34.3382 22.8023 34.3023C19.6848 34.2663 20.0531 34.1136 17.6273 36.5124L15.7227 38.3992L11.5898 34.2753L7.45703 30.1425L8.87656 28.723L10.2961 27.3035L10.8801 27.4921C11.6797 27.7706 12.6949 27.7167 13.3688 27.3663C14.3301 26.8722 14.8961 26.1445 15.0938 25.1023L15.2016 24.5453L15.6328 24.4913C16.2258 24.4105 17.0793 23.9613 17.4746 23.521C17.8789 23.0808 18.2023 22.389 18.2832 21.814C18.3461 21.4007 18.3461 21.4007 18.7594 21.3378C19.3344 21.257 20.0262 20.9335 20.4664 20.5292C20.9066 20.1339 21.3559 19.2804 21.4367 18.6874L21.4906 18.2562L21.9129 18.1933C22.9102 18.0585 23.8984 17.3218 24.3566 16.3695C24.6531 15.7316 24.698 14.6804 24.4375 13.9347L24.2488 13.3597L25.3988 12.1917C26.8902 10.6824 27.1238 10.5117 27.6809 10.5117C28.0133 10.5117 28.175 10.5656 28.3906 10.7453ZM15.5699 13.7999C15.9742 14.0066 19.1996 17.223 19.4152 17.6273C19.6309 18.0585 19.6309 18.337 19.3973 18.7863C19.2625 19.0558 19.1098 19.1995 18.8043 19.3343C18.0496 19.6667 17.9777 19.6218 15.8754 17.5374C14.8422 16.5132 13.9438 15.5699 13.8719 15.4351C13.5934 14.896 13.818 14.1863 14.393 13.8359C14.7523 13.6203 15.1836 13.6023 15.5699 13.7999ZM13.1891 17.7351C13.3238 17.807 14.0875 18.5257 14.8871 19.3343C16.091 20.5472 16.3426 20.8527 16.3965 21.1312C16.4863 21.6074 16.1898 22.1824 15.7316 22.4429C14.9949 22.8562 14.6984 22.7124 13.1262 21.1671C11.6078 19.6757 11.4102 19.4152 11.4102 18.8851C11.4102 17.9417 12.3805 17.3128 13.1891 17.7351ZM11.6617 22.4968C12.084 22.7214 13.0902 23.8355 13.1891 24.1949C13.3508 24.7699 13.1352 25.255 12.5781 25.5964C11.9402 25.9828 11.4461 25.8031 10.5387 24.8687C9.63125 23.9253 9.55938 23.3953 10.2332 22.7124C10.5387 22.416 10.6375 22.371 10.9969 22.371C11.2305 22.371 11.527 22.4249 11.6617 22.4968ZM41.7594 30.5828C41.8941 30.6546 42.4602 31.1757 43.0172 31.7417C43.9785 32.721 44.0234 32.7839 44.0234 33.1433C44.0234 33.3499 43.9695 33.6285 43.8977 33.7632C43.7359 34.0597 33.9969 43.7808 33.7184 43.9245C33.6106 43.9785 33.368 44.0234 33.1703 44.0234C32.7211 44.0234 32.3617 43.7628 31.3375 42.6937C30.5199 41.8492 30.3672 41.5347 30.502 40.9956C30.5738 40.6902 40.4207 30.7714 40.834 30.5828C41.1844 30.43 41.4629 30.43 41.7594 30.5828Z" fill="#F49D1A"/>
<path d="M30.2504 29.927C30.0348 30.0527 29.8281 30.484 29.8281 30.8074C29.8281 30.9871 29.927 31.1848 30.0887 31.3734C30.3133 31.625 30.4121 31.6699 30.7715 31.6699C31.1309 31.6699 31.2297 31.625 31.4543 31.3734C32.0203 30.7355 31.634 29.8281 30.7984 29.8281C30.5828 29.8281 30.3402 29.873 30.2504 29.927Z" fill="#F49D1A"/>
<path d="M5.67812 38.8574C5.37266 39.118 5.28281 39.4234 5.40859 39.8637C5.49844 40.2051 5.9207 40.5195 6.28906 40.5195C6.86406 40.5195 7.32227 39.9176 7.21445 39.3156C7.14258 38.9563 6.70234 38.6328 6.28906 38.6328C6.05547 38.6328 5.85781 38.7047 5.67812 38.8574Z" fill="#F49D1A"/>
</svg>
