<svg width="42" height="38" viewBox="0 0 42 38" fill="none" xmlns="http://www.w3.org/2000/svg">
<path d="M9.79646 0.887447C7.9906 1.32768 6.41833 2.97182 6.0949 4.75073C6.02302 5.11909 5.99607 9.45854 5.99607 18.4789V31.6679H3.55232C2.20466 31.6679 1.05466 31.7039 1.00076 31.7398C0.758178 31.9015 0.695288 32.189 0.785131 32.8628C1.05466 34.9832 2.61794 36.7261 4.63044 37.1394C5.30427 37.2742 27.9898 37.2742 28.6547 37.1394C30.3347 36.789 31.889 35.2257 32.3562 33.4109C32.482 32.9167 32.5 31.4074 32.5 19.5929V6.33198H36.7676H41.0351L41.1789 6.10737C41.4754 5.65815 41.1429 4.14878 40.532 3.13354C39.957 2.17221 39.1125 1.47143 37.9804 1.0312L37.3965 0.806587L23.8301 0.78862C13.0937 0.779636 10.1648 0.797604 9.79646 0.887447ZM32.4551 2.53159C31.9879 3.10659 31.7004 3.62768 31.4578 4.35542C31.3051 4.82261 31.2961 5.5144 31.2691 16.4394C31.2511 22.8093 31.2332 29.1972 31.2152 30.6347L31.1972 33.2402L30.9097 33.8421C30.5414 34.6328 29.8945 35.2796 29.1039 35.648C28.5379 35.9175 28.439 35.9355 27.5136 35.9355C26.5703 35.9355 26.4984 35.9175 25.9234 35.63C24.7015 35.0191 23.7941 33.6355 23.7851 32.3867C23.7851 32.207 23.7222 31.9734 23.6414 31.8656L23.5066 31.6679H15.3758H7.25388L7.27185 18.2542L7.2988 4.84956L7.57732 4.25659C8.06247 3.24136 8.80818 2.55854 9.82341 2.20815C10.3445 2.02847 10.5242 2.02847 21.6109 2.01948H32.8683L32.4551 2.53159ZM37.6301 2.30698C38.2051 2.56753 38.7801 3.05268 39.1394 3.58276C39.373 3.92417 39.7773 4.87651 39.7773 5.07417C39.7773 5.12807 38.4207 5.16401 36.1746 5.16401H32.5718L32.6258 4.91245C32.7426 4.46323 33.1918 3.59174 33.5152 3.23237C33.8926 2.80112 34.6922 2.298 35.2672 2.13628C35.932 1.95659 37.0281 2.02847 37.6301 2.30698ZM22.689 33.4558C22.8328 34.1296 23.2461 34.9382 23.7582 35.5222L24.1625 35.9804L14.4683 35.9625L4.78318 35.9355L4.26208 35.675C3.39958 35.2347 2.59997 34.2375 2.33044 33.2582L2.2406 32.9257H12.4109H22.5812L22.689 33.4558Z" fill="#F49D1A"/>
<path d="M12.0605 9.19804C11.3238 9.39569 10.8836 9.72812 10.5062 10.366L10.2637 10.7793V13.25C10.2637 16.0082 10.2727 16.0621 10.9105 16.691C11.5305 17.3199 11.6203 17.3379 14.1988 17.3648C16.4809 17.3918 16.5258 17.3918 16.984 17.1762C17.568 16.9066 17.9094 16.5652 18.1789 15.9902C18.3586 15.6219 18.3945 15.3973 18.3945 14.6785C18.3945 13.7262 18.3227 13.5555 17.8824 13.4656C17.6488 13.4207 17.55 13.4566 17.3703 13.6363C17.1547 13.8519 17.1367 13.9328 17.1367 14.6066C17.1367 15.4152 17.0109 15.7297 16.5977 15.9812C16.382 16.098 16.0316 16.125 14.3066 16.125C11.3508 16.125 11.4766 16.2508 11.4766 13.2769C11.4766 10.3121 11.4137 10.375 14.2977 10.375C16.0945 10.375 16.1395 10.375 16.2742 10.1773C16.4539 9.92577 16.4539 9.5664 16.2922 9.3328C16.1754 9.17108 16.0316 9.1621 14.2437 9.14413C13.1926 9.13515 12.2133 9.1621 12.0605 9.19804Z" fill="#F49D1A"/>
<path d="M22.5273 9.18007C22.159 9.31484 22.0332 9.96171 22.3297 10.2223C22.4734 10.357 22.8148 10.375 25.2406 10.375C28.3133 10.375 28.2773 10.384 28.2773 9.71913C28.2773 9.12617 28.2234 9.11718 25.2676 9.12617C23.839 9.12617 22.5992 9.15312 22.5273 9.18007Z" fill="#F49D1A"/>
<path d="M16.5347 11.5609L14.621 13.4746L13.9652 12.8188C13.4441 12.2977 13.2554 12.1719 13.0398 12.1719C12.6804 12.1719 12.4828 12.3336 12.4109 12.693C12.357 12.9805 12.3929 13.0344 13.3363 13.9777C14.1988 14.8402 14.3515 14.957 14.621 14.957C14.8996 14.957 15.1152 14.7684 17.1007 12.7828C18.3046 11.5969 19.3019 10.5188 19.3378 10.402C19.3917 10.1863 19.257 9.84492 19.0773 9.72813C19.0234 9.69219 18.8527 9.65625 18.7089 9.65625C18.4753 9.65625 18.1699 9.92578 16.5347 11.5609Z" fill="#F49D1A"/>
<path d="M20.416 11.5609C20.1644 11.7047 20.1016 11.8125 20.1016 12.1359C20.1016 12.7199 20.0207 12.7109 24.2074 12.7109C27.873 12.7109 27.9808 12.7019 28.1426 12.5312C28.3762 12.2707 28.3582 11.8215 28.1066 11.6148C27.909 11.4621 27.6664 11.4531 24.2433 11.4531C21.6918 11.4621 20.5418 11.4891 20.416 11.5609Z" fill="#F49D1A"/>
<path d="M20.416 13.8969C20.1644 14.0406 20.1016 14.1484 20.1016 14.4719C20.1016 15.0559 20.0207 15.0469 24.2164 15.0469H27.9988L28.1875 14.8043C28.3223 14.6336 28.3582 14.4898 28.3223 14.3281C28.1965 13.825 28.3133 13.834 24.2973 13.816C21.6289 13.798 20.5418 13.816 20.416 13.8969Z" fill="#F49D1A"/>
<path d="M20.416 16.2328C20.1644 16.3766 20.1016 16.4844 20.1016 16.8078C20.1016 17.3918 20.0207 17.3828 24.2164 17.3828H27.9988L28.1875 17.1402C28.3223 16.9695 28.3582 16.8258 28.3223 16.6641C28.1965 16.1609 28.3133 16.1699 24.2973 16.1519C21.6289 16.134 20.5418 16.1519 20.416 16.2328Z" fill="#F49D1A"/>
<path d="M11.8359 20.0332C11.2789 20.2039 10.6859 20.734 10.4344 21.282C10.2277 21.7223 10.2188 21.8121 10.2188 24.0312C10.2188 26.1426 10.2367 26.3582 10.4074 26.7266C10.632 27.2207 11.0453 27.6699 11.5215 27.9215C11.8629 28.1102 11.9887 28.1191 14.3066 28.1191C16.6246 28.1191 16.7504 28.1102 17.0918 27.9215C17.568 27.6699 17.9812 27.2207 18.2059 26.7266C18.4754 26.1426 18.4754 24.6512 18.2148 24.3906C17.9812 24.157 17.568 24.157 17.3523 24.3996C17.2176 24.5434 17.1727 24.777 17.1367 25.4328C17.0918 26.2414 17.0738 26.2953 16.7953 26.5738L16.5078 26.8613H14.2977H12.0875L11.782 26.5289L11.4766 26.1875V24.1211C11.4766 21.8211 11.5125 21.6594 12.0426 21.3359C12.3031 21.1742 12.5008 21.1562 14.1988 21.1562C15.9418 21.1562 16.0676 21.1473 16.2383 20.9766C16.3371 20.8777 16.418 20.6801 16.418 20.5273C16.418 20.3746 16.3371 20.177 16.2383 20.0781C16.0676 19.9074 15.9418 19.8984 14.1539 19.9074C12.7883 19.9074 12.1234 19.9434 11.8359 20.0332Z" fill="#F49D1A"/>
<path d="M22.3656 20.0422C22.2219 20.141 22.168 20.2668 22.168 20.5273C22.168 21.1473 22.1949 21.1562 25.2227 21.1562C28.2504 21.1562 28.2773 21.1473 28.2773 20.5273C28.2773 19.9074 28.2504 19.8984 25.2227 19.8984C22.9676 19.8984 22.5363 19.9164 22.3656 20.0422Z" fill="#F49D1A"/>
<path d="M18.4843 20.4555C18.3675 20.5004 17.4421 21.3629 16.4179 22.3691L14.5671 24.2109L13.9472 23.582C13.3992 23.025 13.2824 22.9531 12.9859 22.9531C12.7253 22.9531 12.6175 23.007 12.5007 23.1777C12.2492 23.5641 12.4019 23.8426 13.3992 24.8309C14.1539 25.5676 14.3785 25.7383 14.5851 25.7383C14.8097 25.7383 15.1871 25.4148 17.0109 23.6359C18.2058 22.477 19.23 21.4078 19.2839 21.2551C19.5085 20.734 19.0234 20.2578 18.4843 20.4555Z" fill="#F49D1A"/>
<path d="M20.2813 22.4141C20.1824 22.5129 20.1016 22.7105 20.1016 22.8633C20.1016 23.016 20.1824 23.2137 20.2813 23.3125C20.452 23.4832 20.5777 23.4922 24.2164 23.4922C27.7473 23.4922 27.9898 23.4832 28.1246 23.3305C28.2145 23.2406 28.2773 23.016 28.2773 22.8363C28.2773 22.2254 28.3402 22.2344 24.1715 22.2344C20.5777 22.2344 20.452 22.2434 20.2813 22.4141Z" fill="#F49D1A"/>
<path d="M20.2992 24.777C20.0566 25.0375 20.0476 25.4148 20.2812 25.6484C20.4519 25.8191 20.5777 25.8281 24.2164 25.8281C27.7473 25.8281 27.9898 25.8191 28.1246 25.6664C28.2144 25.5766 28.2773 25.352 28.2773 25.1723C28.2773 24.5613 28.3312 24.5703 24.1894 24.5703H20.4879L20.2992 24.777Z" fill="#F49D1A"/>
<path d="M20.2813 27.0859C20.1824 27.1848 20.1016 27.3824 20.1016 27.5352C20.1016 27.6879 20.1824 27.8855 20.2813 27.9844C20.452 28.1551 20.5777 28.1641 24.2164 28.1641C27.7473 28.1641 27.9898 28.1551 28.1246 28.0023C28.2145 27.9125 28.2773 27.6879 28.2773 27.5082C28.2773 26.8973 28.3402 26.9062 24.1715 26.9062C20.5777 26.9062 20.452 26.9152 20.2813 27.0859Z" fill="#F49D1A"/>
<path d="M35.6715 10.0156C35.3301 10.1594 35.2941 10.7344 35.6086 11.0488C35.7254 11.1566 36.0398 11.1836 37.3066 11.1836H38.8699L39.0586 10.941C39.2832 10.6535 39.2383 10.3211 38.9508 10.0785C38.798 9.94375 38.5734 9.92578 37.3156 9.93477C36.525 9.93477 35.7793 9.9707 35.6715 10.0156Z" fill="#F49D1A"/>
<path d="M35.4379 12.2437C35.2941 12.3964 35.2852 13.3038 35.2852 23.4921V34.5698L36.1117 35.6749C36.9383 36.78 37.1539 36.9507 37.5492 36.8339C37.6391 36.798 38.0883 36.2858 38.5285 35.6929L39.3281 34.6237V23.555C39.3281 13.6812 39.3102 12.4593 39.1844 12.2796C39.0496 12.0909 39.0047 12.0819 37.3156 12.0819C35.7523 12.0819 35.5637 12.0999 35.4379 12.2437ZM38.0703 23.7167V34.1925L37.702 34.6776L37.3246 35.1718L36.9383 34.6597L36.552 34.1386L36.543 23.6898V13.2499H37.3066H38.0703V23.7167Z" fill="#F49D1A"/>
</svg>
