<svg width="46" height="42" viewBox="0 0 46 42" fill="none" xmlns="http://www.w3.org/2000/svg">
<path d="M24.9766 0.695312C24.2039 0.794142 23.7367 0.95586 22.9551 1.35117C22.3082 1.68359 22.0117 1.93516 19.9004 4.0375L17.5645 6.34649L13.5664 6.37344C9.07423 6.40039 9.27189 6.37344 8.67892 7.10117L8.4004 7.45156L8.37345 14.9895C8.35548 22.2578 8.35548 22.5363 8.52618 22.8688C8.72384 23.2461 8.90353 23.4348 9.31681 23.6414C9.57735 23.7762 10.7813 23.7852 22.416 23.7852C32.9727 23.7852 35.2727 23.7672 35.5152 23.6594C35.9016 23.5066 36.3508 22.9766 36.4676 22.5543C36.5305 22.3387 36.5664 20.6137 36.5664 17.8465V13.4801L36.9527 13.3723C37.5277 13.2016 38.4352 12.6895 38.9922 12.2402L39.4863 11.8359H42.1996C44.9039 11.8359 44.9129 11.8359 45.0477 11.6383C45.1734 11.4586 45.1914 10.7937 45.1914 6.23867V1.0457L44.9668 0.830078L44.7512 0.605469L35.1109 0.614454C29.8102 0.623438 25.2461 0.659376 24.9766 0.695312ZM38.6328 6.41836L38.6238 11.0723L38.2016 11.3957C36.1711 12.959 33.5477 12.9141 31.5172 11.2879C31.1848 11.0184 30.8793 10.8477 30.7356 10.8477C30.5559 10.8477 29.9449 11.4137 27.8516 13.4891C26.3961 14.9445 25.0754 16.1934 24.9137 16.2742C24.3477 16.5527 23.4223 16.4 22.9192 15.9418C22.416 15.4746 22.2363 14.5852 22.5059 13.9203C22.6047 13.6957 23.6918 12.5367 25.8301 10.3895C29.2352 6.98438 29.2531 6.94844 28.8399 6.53516C28.6692 6.36445 28.5434 6.35547 23.9254 6.35547H19.1817L20.5293 4.99883C22.2184 3.2918 23.027 2.6 23.6649 2.28555C24.6801 1.79141 24.6442 1.79141 31.9215 1.78242L38.6328 1.77344V6.41836ZM44.0234 6.26562V10.7578H41.9121H39.8008V6.26562V1.77344H41.9121H44.0234V6.26562ZM24.3836 10.1469C21.6164 12.932 21.4727 13.1207 21.284 14.127C21.0504 15.4117 21.7152 16.7145 22.8922 17.2895C23.3234 17.4961 23.5211 17.532 24.168 17.532C25.4527 17.541 25.5875 17.4512 28.3906 14.666C29.7024 13.3543 30.8074 12.2852 30.8344 12.2852C30.8613 12.2852 31.1309 12.4469 31.4274 12.6535C32.2 13.1656 33.2781 13.534 34.2574 13.6238C34.6977 13.6687 35.1379 13.6777 35.2277 13.6598C35.3895 13.6148 35.3984 13.7496 35.3984 17.9363V22.2668L35.1738 22.4824L34.9582 22.707H22.5149C13.4586 22.707 10.0086 22.6801 9.84689 22.6082C9.73009 22.5453 9.57735 22.4016 9.52345 22.2668C9.46056 22.1051 9.4336 19.8949 9.45157 14.9535L9.47853 7.86484L9.69415 7.69414C9.89181 7.53242 10.1703 7.52344 18.4449 7.52344H26.9891L24.3836 10.1469Z" fill="#F49D1A"/>
<path d="M12.3536 8.871C12.2008 8.91592 11.9583 9.07764 11.8145 9.23038L11.545 9.50889L11.518 11.9976C11.4821 15.6183 11.3114 15.4296 14.7614 15.4296C17.277 15.4296 17.5016 15.3937 17.861 14.9355C18.0497 14.6929 18.0586 14.612 18.0586 12.1593C18.0586 9.81436 18.0497 9.6167 17.879 9.34717C17.5735 8.84405 17.5016 8.82608 14.959 8.80811C13.6743 8.79913 12.4973 8.82608 12.3536 8.871ZM14.9141 10.7308C14.9141 11.7999 14.9501 11.8358 16.1001 11.8358H16.9805V13.0487V14.2616H15.8575H14.7344V13.498C14.7344 12.4378 14.6626 12.3749 13.5215 12.3749H12.668V11.162V9.94912H13.7911H14.9141V10.7308ZM16.9805 10.3085V10.6679H16.4864H15.9922V10.3085V9.94912H16.4864H16.9805V10.3085ZM13.5665 13.9022V14.2616H13.1172H12.668V13.9022V13.5429H13.1172H13.5665V13.9022Z" fill="#F49D1A"/>
<path d="M11.9492 19.5625C11.6977 19.8141 11.7246 20.1375 12.0031 20.3621C12.2188 20.5328 12.3625 20.5508 13.5844 20.5508C14.8871 20.5508 14.932 20.5418 15.1387 20.3262C15.4082 20.0656 15.4262 19.8051 15.1836 19.5625C15.0219 19.4008 14.8871 19.3828 13.5664 19.3828C12.2457 19.3828 12.1109 19.4008 11.9492 19.5625Z" fill="#F49D1A"/>
<path d="M17.852 19.5445C17.6633 19.7512 17.6544 20.1016 17.8251 20.3352C17.9419 20.4879 18.0856 20.5059 19.2895 20.5328C20.754 20.5688 21.0684 20.4969 21.2032 20.1465C21.293 19.9039 21.1942 19.5895 20.9876 19.4547C20.9336 19.4188 20.2419 19.3828 19.4422 19.3828C18.1575 19.3828 17.9778 19.4008 17.852 19.5445Z" fill="#F49D1A"/>
<path d="M23.7727 19.5535C23.6738 19.6613 23.6289 19.832 23.6469 20.0207C23.6918 20.4789 23.9164 20.5508 25.3809 20.5508C26.8453 20.5508 27.0699 20.4789 27.1149 20.0207C27.1328 19.832 27.0879 19.6613 26.9891 19.5535C26.8543 19.4008 26.7016 19.3828 25.3809 19.3828C24.0602 19.3828 23.9074 19.4008 23.7727 19.5535Z" fill="#F49D1A"/>
<path d="M29.7024 19.5535C29.6035 19.6613 29.5586 19.832 29.5766 20.0207C29.6215 20.4969 29.8371 20.5598 31.4274 20.5328C32.6762 20.5059 32.8199 20.4879 32.9367 20.3352C33.1074 20.0926 33.0984 19.7063 32.9008 19.5356C32.757 19.4098 32.5055 19.3828 31.2926 19.3828C29.9899 19.3828 29.8371 19.4008 29.7024 19.5535Z" fill="#F49D1A"/>
<path d="M1.81487 24.5039C1.41956 24.5937 1.00628 24.998 0.889479 25.4023C0.835573 25.6089 0.80862 28.0796 0.826589 32.6078C0.853542 39.4 0.853542 39.4988 1.04221 39.7414C1.49143 40.3433 1.54534 40.3613 3.54885 40.3882C5.21995 40.4152 5.4176 40.4062 5.78596 40.2355C6.33401 40.0019 6.55862 39.6246 6.55862 38.9418V38.4296H7.15159C8.60706 38.4296 11.0867 38.9777 13.3418 39.8043C16.5582 40.9812 18.2473 41.3136 21.0235 41.3316C23.3055 41.3406 25.1203 41.0351 28.3996 40.0918C32.1281 39.0136 35.7578 37.4863 38.7676 35.7253C39.9176 35.0605 40.3578 34.6472 40.6903 33.9464C40.8879 33.5152 40.9239 33.3265 40.9239 32.5898C40.9239 31.7902 40.9059 31.7003 40.6184 31.1703C40.0254 30.0742 39.0731 29.5082 37.8242 29.5082C37.1774 29.5082 36.9707 29.58 32.8739 31.0535C30.5199 31.898 28.5793 32.5898 28.5614 32.5898C28.5434 32.5898 28.5254 32.1945 28.5254 31.7093C28.5254 31.0085 28.4895 30.757 28.3278 30.4156C28.0582 29.8226 27.4653 29.2207 26.8723 28.9332L26.3692 28.6816L23.2246 28.6277C20.3496 28.5828 20.0352 28.5648 19.586 28.3941C18.8582 28.1246 18.4719 27.9089 17.5645 27.2531C14.4559 25.007 10.9699 24.7105 7.3762 26.3996C6.96292 26.5882 6.61253 26.75 6.59456 26.75C6.57659 26.75 6.55862 26.4355 6.55862 26.0492C6.55862 25.2496 6.3969 24.8812 5.91175 24.6207C5.66018 24.4859 5.3637 24.4589 3.86331 24.441C2.90198 24.432 1.97659 24.4589 1.81487 24.5039ZM5.46253 32.2304C5.47151 35.8601 5.46253 38.9238 5.43557 39.0406L5.39065 39.2382L3.70159 39.2203L2.02151 39.1933L1.99456 32.5C1.98557 28.8164 1.99456 25.7527 2.02151 25.6898C2.04846 25.6 2.45276 25.582 3.74651 25.6L5.43557 25.6269L5.46253 32.2304ZM13.216 26.5703C14.5637 26.8218 15.7856 27.3789 17.1602 28.3582C18.9391 29.6339 18.984 29.6429 22.8742 29.7058L26.0278 29.7597L26.468 30.0293C27.9864 30.9726 27.6539 33.1019 25.9199 33.5691C25.6864 33.632 24.0242 33.6679 21.1852 33.6679C16.9176 33.6679 16.7918 33.6769 16.6211 33.8476C16.3965 34.0722 16.3965 34.3058 16.6121 34.5753L16.7828 34.791H21.4008C25.4617 34.791 26.0547 34.773 26.3692 34.6472C26.5668 34.5664 29.1543 33.623 32.1102 32.5539C35.9016 31.1882 37.6086 30.6132 37.8782 30.6132C38.3992 30.6132 39.127 31.0085 39.4684 31.4937C39.9895 32.2214 39.8817 33.3894 39.2348 34.0003C38.4891 34.7011 35.2637 36.3632 32.5504 37.4503C29.936 38.5015 25.8571 39.6875 23.7547 40.0019C22.3711 40.2085 20.8348 40.2625 19.586 40.1457C17.5016 39.939 16.2078 39.6246 13.791 38.7261C11.6528 37.9265 9.31682 37.3964 7.52893 37.2886L6.55862 37.2347V32.6707V28.1156L7.52893 27.6214C9.13714 26.8039 10.2782 26.4984 11.7785 26.4894C12.3086 26.4804 12.9555 26.5253 13.216 26.5703Z" fill="#F49D1A"/>
</svg>
