<svg width="46" height="46" viewBox="0 0 46 46" fill="none" xmlns="http://www.w3.org/2000/svg">
<path d="M3.8543 0.709774C3.45898 0.952351 3.22539 1.29376 3.09961 1.81485C3.03672 2.04845 3.00078 2.06641 2.56953 2.06641C1.50937 2.06641 0.628906 2.54259 0.233594 3.33321L0 3.80938V19.3973V34.9941L0.251562 35.4434C0.566016 36.0184 1.11406 36.4316 1.75195 36.5754C2.20117 36.6742 2.28203 36.7281 2.42578 37.0156C2.62344 37.4109 3.13555 37.8781 3.58477 38.0848C3.88125 38.2106 4.99531 38.2285 15.1387 38.2555L26.3691 38.2824L26.5398 38.8125C27.0699 40.5106 28.4445 42.4063 29.9988 43.5832C31.2387 44.5086 32.9816 45.2453 34.482 45.4609C35.632 45.6316 37.4918 45.5328 38.5879 45.2453C42.2805 44.275 45.1555 41.2024 45.8652 37.4379C46.0449 36.5035 46.0359 34.6438 45.8562 33.6914C45.4879 31.7418 44.6074 30.0348 43.2418 28.6332L42.7207 28.1031L42.1277 16.0641C41.4719 2.86602 41.5348 3.55782 40.9059 2.86602C40.3219 2.22813 39.9625 2.12032 38.2555 2.08438L36.7461 2.04845V1.82384C36.7461 1.41055 36.2969 0.808601 35.7848 0.548054C35.4793 0.395321 34.1766 0.422272 33.8172 0.592976C33.4039 0.790634 33.0805 1.19493 32.9547 1.6711L32.8469 2.06641H31.2656H29.6844L29.5766 1.6711C29.4508 1.19493 29.1273 0.790634 28.7141 0.592976C28.3367 0.413288 27.1598 0.395321 26.7465 0.575008C26.3242 0.745712 25.884 1.28477 25.8211 1.70704L25.7582 2.06641H23.8984H22.0297L21.9668 1.76993C21.868 1.32071 21.5086 0.826569 21.1133 0.628914C20.5742 0.350399 19.4152 0.368366 18.9121 0.673836C18.4809 0.9254 18.3012 1.15899 18.1395 1.68907L18.0316 2.06641H16.2617H14.4918L14.4289 1.70704C14.366 1.28477 13.9258 0.745712 13.5035 0.575008C13.1262 0.413288 11.9402 0.413288 11.5539 0.575008C11.1586 0.736725 10.7004 1.31173 10.6285 1.72501L10.5746 2.06641H8.80469H7.02578L6.96289 1.76993C6.86406 1.32071 6.50469 0.826569 6.10937 0.628914C5.83984 0.494148 5.5793 0.449226 5.0043 0.449226C4.33945 0.449226 4.21367 0.476181 3.8543 0.709774ZM5.60625 1.71602L5.83984 1.89571V3.87227C5.83984 5.72305 5.83086 5.84883 5.66016 6.01954C5.52539 6.1543 5.36367 6.19923 5.03125 6.19923C4.69883 6.19923 4.53711 6.1543 4.40234 6.01954C4.23164 5.84883 4.22266 5.72305 4.22266 3.87227V1.89571L4.45625 1.71602C4.6 1.59923 4.82461 1.52735 5.03125 1.52735C5.23789 1.52735 5.4625 1.59923 5.60625 1.71602ZM13.1262 1.69806C13.3418 1.86876 13.3418 1.89571 13.3687 3.80938L13.3957 5.75001L13.1711 5.97462C12.8836 6.26212 12.2547 6.28907 11.9402 6.02852C11.7246 5.85782 11.7246 5.84883 11.7246 3.86329C11.7246 1.87774 11.7246 1.86876 11.9402 1.69806C12.2187 1.47345 12.8477 1.47345 13.1262 1.69806ZM20.6102 1.71602L20.8437 1.89571V3.87227C20.8437 5.72305 20.8348 5.84883 20.6641 6.01954C20.5293 6.1543 20.3676 6.19923 20.0352 6.19923C19.7027 6.19923 19.541 6.1543 19.4062 6.01954C19.2355 5.84883 19.2266 5.72305 19.2266 3.87227V1.89571L19.4602 1.71602C19.6039 1.59923 19.8285 1.52735 20.0352 1.52735C20.2418 1.52735 20.4664 1.59923 20.6102 1.71602ZM28.148 1.62618C28.2559 1.68907 28.3727 1.77892 28.4086 1.83282C28.4445 1.88673 28.4805 2.83009 28.4805 3.92618C28.4805 5.88477 28.4805 5.92071 28.2828 6.05548C28.166 6.13634 27.8965 6.19923 27.6629 6.19923C27.3125 6.19923 27.2047 6.1543 27.052 5.96563C26.8723 5.74102 26.8633 5.61524 26.8633 3.84532C26.8633 1.97657 26.8633 1.96759 27.0879 1.75196C27.3305 1.5004 27.8066 1.45547 28.148 1.62618ZM35.4434 1.75196C35.668 1.96759 35.668 1.97657 35.668 3.84532C35.668 5.61524 35.659 5.74102 35.4793 5.96563C35.3266 6.1543 35.2187 6.19923 34.8684 6.19923C34.6348 6.19923 34.3652 6.13634 34.2484 6.05548C34.0508 5.92071 34.0508 5.88477 34.0508 3.92618C34.0508 2.83009 34.0867 1.88673 34.1227 1.83282C34.3652 1.47345 35.1199 1.41954 35.4434 1.75196ZM3.05469 4.51016C3.05469 5.21993 3.09961 5.95665 3.15352 6.1543C3.37812 6.95391 4.3125 7.45704 5.36367 7.33126C5.95664 7.25938 6.28008 7.10665 6.58555 6.73829C6.93594 6.33399 7.00781 5.9297 7.00781 4.51016V3.23438H8.80469H10.6016V4.62696C10.6016 6.20821 10.6645 6.45079 11.1676 6.89102C11.5809 7.25938 12.1199 7.40313 12.7848 7.33126C13.3777 7.26837 13.6922 7.1336 14.0336 6.76524C14.4109 6.36993 14.4648 6.1004 14.4648 4.61798V3.23438H16.2527H18.0406L18.0766 4.70782C18.1035 6.18126 18.1035 6.18126 18.373 6.56758C18.6965 7.0168 19.1277 7.25938 19.7477 7.34024C20.7539 7.45704 21.6973 6.94493 21.9129 6.1543C21.9668 5.95665 22.0117 5.21993 22.0117 4.51016V3.23438H23.8984H25.7852V4.68985C25.7852 6.05548 25.7941 6.16329 26.0008 6.5047C26.3422 7.08868 26.8363 7.32227 27.7168 7.32227C28.5434 7.32227 28.8758 7.17852 29.325 6.62149L29.6035 6.2711L29.6305 4.75274L29.6574 3.23438H31.2746H32.8828V4.58204C32.8828 6.01954 32.9637 6.3879 33.359 6.81017C33.7184 7.19649 34.0508 7.31329 34.8144 7.31329C35.7309 7.32227 36.1801 7.10665 36.5394 6.49571C36.773 6.09142 36.791 6.01056 36.818 4.65392L36.8539 3.23438H37.8422C38.9652 3.23438 39.3516 3.36016 39.6301 3.80938C39.7918 4.06993 39.8008 4.31251 39.8008 7.11563V10.1524H20.4395H1.07812V7.16055C1.07812 4.33946 1.08711 4.15977 1.25781 3.88126C1.52734 3.44102 1.93164 3.23438 2.54258 3.23438H3.05469V4.51016ZM39.8008 18.7863C39.8008 25.4617 39.7828 26.2524 39.666 26.1984C39.3336 26.0727 38.2734 25.7852 37.8062 25.6953L37.2852 25.5965V20.2957V15.0039H22.9551H8.625V17.5645V20.125H6.1543H3.68359V25.9649V31.8047H15.1926C24.9496 31.8047 26.6926 31.8227 26.6566 31.9305C26.3602 32.7031 26.1266 33.7902 26.0008 34.9672L25.9559 35.4883H13.9527C0.790625 35.4883 1.725 35.5242 1.30273 34.9672C1.12305 34.7246 1.12305 34.5629 1.09609 23.018L1.07812 11.3203H20.4395H39.8008V18.7863ZM14.1055 18.1035V20.125H11.9492H9.79297V18.1035V16.082H11.9492H14.1055V18.1035ZM19.6758 18.1035V20.125H17.4297H15.1836V18.1035V16.082H17.4297H19.6758V18.1035ZM25.1562 18.1035V20.125H23H20.8437V18.1035V16.082H23H25.1562V18.1035ZM30.5469 18.1035V20.125H28.3906H26.2344V18.1035V16.082H28.3906H30.5469V18.1035ZM36.1172 18.1035V20.125H33.916H31.7148V18.1035V16.082H33.916H36.1172V18.1035ZM41.4988 26.6207L41.5078 27.1418L41.2383 26.9981L40.9687 26.8543L40.9777 21.7152L40.9957 16.5762L41.2473 21.3379C41.382 23.9524 41.4988 26.3332 41.4988 26.6207ZM8.625 23.5391V25.7852H6.69336H4.76172V23.5391V21.293H6.69336H8.625V23.5391ZM14.1055 23.5391V25.7852H11.9492H9.79297V23.5391V21.293H11.9492H14.1055V23.5391ZM19.6758 23.5391V25.7852H17.4297H15.1836V23.5391V21.293H17.4297H19.6758V23.5391ZM25.1562 23.5391V25.7852H23H20.8437V23.5391V21.293H23H25.1562V23.5391ZM30.5469 23.5391V25.7852H28.3906H26.2344V23.5391V21.293H28.3906H30.5469V23.5391ZM36.1172 23.3953V25.4887L35.1109 25.6055C34.5539 25.6774 33.5566 25.7402 32.9098 25.7582L31.7148 25.7941V23.5481V21.293H33.916H36.1172V23.3953ZM38.1117 26.9441C40.1781 27.4832 41.9121 28.6422 43.143 30.3133C44.4816 32.1102 45.1016 34.4012 44.841 36.5484C44.3648 40.4387 41.5168 43.4934 37.5996 44.302C36.9078 44.4457 35.1469 44.4457 34.4551 44.302C33.0266 44.0055 31.5711 43.3406 30.5109 42.4961C26.423 39.2438 26.0008 33.2602 29.5945 29.4777C30.9062 28.1031 32.3617 27.2945 34.3203 26.8543C35.3176 26.6297 37.0875 26.6746 38.1117 26.9441ZM8.625 28.7949V30.7266H6.69336H4.76172V28.7949V26.8633H6.69336H8.625V28.7949ZM14.1055 28.7949V30.7266H11.9492H9.79297V28.7949V26.8633H11.9492H14.1055V28.7949ZM19.6758 28.7949V30.7266H17.4297H15.1836V28.7949V26.8633H17.4297H19.6758V28.7949ZM25.1562 28.7949V30.7266H23H20.8437V28.7949V26.8633H23H25.1562V28.7949ZM30.5469 27.016C30.5469 27.1059 30.3402 27.3125 30.0797 27.4922C29.3609 27.9774 28.3008 29.0824 27.7258 29.9449L27.2047 30.7266H26.7195H26.2344V28.7949V26.8633H28.3906C30.3852 26.8633 30.5469 26.8723 30.5469 27.016ZM26.0727 36.8809L26.1176 37.1055H15.2105C5.32773 37.1055 4.26758 37.0875 3.98906 36.9617C3.81836 36.8809 3.65664 36.782 3.62969 36.7371C3.60273 36.6922 8.38242 36.6563 14.8062 36.6563H26.0367L26.0727 36.8809Z" fill="#F49D1A"/>
<path d="M31.7148 29.6304C31.3914 29.873 30.9332 30.3043 30.6906 30.6008C30.2504 31.1308 29.5586 32.4246 29.5586 32.7121C29.5586 32.8289 29.7023 32.9097 30.0617 33.0176C30.3402 33.0984 30.5738 33.1523 30.5828 33.1344C30.6008 33.1164 30.7535 32.7929 30.9332 32.4066C31.1758 31.8945 31.4184 31.5531 31.8676 31.0949C32.2 30.7625 32.5773 30.4121 32.7031 30.3312L32.9277 30.1875L32.6582 29.6933C32.5145 29.4238 32.3707 29.1992 32.3438 29.1992C32.3168 29.1992 32.0383 29.3969 31.7148 29.6304Z" fill="#F49D1A"/>
<path d="M35.3984 30.8973V31.4184L35.0301 31.4812C34.2305 31.607 33.3949 32.227 33.1164 32.9008C32.9098 33.3949 32.9277 34.2664 33.1613 34.7516C33.359 35.1559 33.8531 35.5781 34.4102 35.8117C34.5809 35.8926 35.3086 36.1082 36.0184 36.3059C37.4379 36.7012 37.7703 36.8359 37.9141 37.1055C38.0398 37.3301 37.8961 37.9141 37.6715 38.1117C37.1684 38.552 36.0723 38.7496 35.3086 38.543C34.8055 38.4082 34.2664 37.8691 34.1766 37.4199L34.1227 37.1055H33.4488H32.775L32.8379 37.4828C32.9277 38.0848 33.3051 38.7766 33.7543 39.1629C34.1227 39.4953 34.9492 39.8906 35.2637 39.8906C35.3625 39.8906 35.3984 39.9984 35.3984 40.2949V40.6992H36.0273H36.6562V40.3039V39.9086L37.1055 39.8098C37.7523 39.666 38.3902 39.3246 38.7137 38.9293C39.2437 38.2914 39.4055 37.2133 39.091 36.5125C38.7855 35.8387 38.1477 35.4973 36.3687 35.0301C35.1648 34.7246 34.473 34.4191 34.3203 34.1496C34.0777 33.6914 34.3293 33.1613 34.9043 32.8828C35.2547 32.7121 35.4254 32.6852 36.0094 32.7211C37.1234 32.784 37.6984 33.1883 37.7973 33.9699L37.8512 34.3203H38.516H39.1898L39.127 33.8441C38.9652 32.6582 38.3184 31.9125 37.1324 31.5711L36.6562 31.4363V30.8973V30.3672H36.0273H35.3984V30.8973Z" fill="#F49D1A"/>
<path d="M41.7773 37.5547C41.5438 38.2734 41.0676 39.064 40.5734 39.5222C40.3938 39.6929 40.25 39.8816 40.25 39.9265C40.259 39.9804 40.4207 40.2051 40.6094 40.4207L40.9688 40.807L41.4359 40.3129C42.1637 39.5582 42.8734 38.2465 43.0082 37.4289C43.0621 37.0965 43.0172 37.0605 42.3883 36.9707L41.984 36.9078L41.7773 37.5547Z" fill="#F49D1A"/>
</svg>
