<svg width="46" height="44" viewBox="0 0 46 44" fill="none" xmlns="http://www.w3.org/2000/svg">
<path d="M33.5566 0.212894C30.1605 0.841801 27.1687 3.17774 25.7312 6.32227L25.3808 7.08594H16.0101H6.63944L6.4328 7.29258C6.22616 7.49922 6.21717 7.53516 6.16327 10.0598C6.13631 11.4613 6.08241 17.409 6.05545 23.2758L6.00155 33.9492H3.30624C0.395298 33.9492 0.15272 33.9852 0.0359231 34.4344C0.00896999 34.5512 -1.43861e-05 35.7102 0.0179544 37.0129C0.0538919 39.3129 0.0538919 39.4027 0.287486 39.9867C0.619908 40.8582 1.04217 41.532 1.6621 42.1609C2.31795 42.8348 3.04569 43.284 3.99803 43.6254L4.71678 43.877H17.4297H30.1426L30.7715 43.6703C32.5594 43.0773 33.916 41.7477 34.5719 39.9508L34.8144 39.2949L34.8414 30.3016L34.8594 21.3082L36.0543 21.2543C36.9258 21.2184 37.4738 21.1465 38.1387 20.9668C42.1187 19.9156 45.1734 16.5824 45.8832 12.5215C46.0719 11.4074 46 9.11641 45.7484 8.16407C44.9937 5.34297 43.3406 3.08789 40.9328 1.59649C40.0434 1.04844 39.118 0.662113 38.0129 0.374615C36.9078 0.0871162 34.6887 0.0062561 33.5566 0.212894ZM37.1683 1.83907C39.9266 2.40508 42.2445 4.18399 43.4844 6.68164C45.2273 10.1945 44.5625 14.2914 41.7863 17.0676C38.2465 20.6074 32.6223 20.6164 29.0644 17.0945C27.9414 15.9805 27.1418 14.5969 26.6656 12.9617C26.4859 12.3508 26.459 12.0453 26.459 10.7246C26.459 9.40391 26.4859 9.08946 26.6656 8.4336C27.582 5.06446 30.3133 2.50391 33.6914 1.83008C34.5269 1.65938 36.3418 1.66837 37.1683 1.83907ZM24.9406 8.85587C24.8148 9.43985 24.7789 11.2098 24.8777 11.9555C24.9945 12.8539 25.273 13.977 25.5156 14.516L25.6863 14.9023H22.0117H18.3461L18.1125 15.1809C17.816 15.5313 17.816 15.8008 18.1125 16.1512L18.3461 16.4297H22.416H26.4859L26.8902 16.9957C28.193 18.8195 30.2863 20.284 32.4605 20.8949L33.332 21.1375V29.6367C33.332 35.1441 33.2961 38.3336 33.2332 38.7109C32.9008 40.7773 31.0859 42.3137 28.9746 42.3227C26.9082 42.3227 25.0844 40.8043 24.716 38.7648C24.6621 38.4684 24.6172 37.3723 24.6172 36.3211C24.6172 34.5781 24.5992 34.3984 24.4465 34.2098L24.2758 33.9941L15.9023 33.9672L7.53788 33.9492L7.5828 30.598C7.61874 28.7652 7.66366 23.0602 7.69061 17.9301L7.74452 8.61329H16.3695H24.9945L24.9406 8.85587ZM23.1078 37.4262C23.1348 39.0883 23.1617 39.3578 23.3504 39.8789C23.6019 40.6066 24.132 41.5051 24.6082 42.0172L24.9586 42.4035L15.0668 42.3766C5.21092 42.3496 5.166 42.3496 4.60897 42.1609C3.87225 41.9094 3.2703 41.5141 2.71327 40.9211C1.79686 39.9508 1.52733 39.0793 1.52733 36.977V35.5664H12.2996H23.0719L23.1078 37.4262Z" fill="#F49D1A"/>
<path d="M34.9492 3.77969C34.6527 3.94141 34.5 4.26485 34.5 4.75V5.1543L33.916 5.45078C32.9097 5.97188 32.2988 6.8793 32.191 8.00235C32.0203 9.83516 33.5207 11.4883 35.3625 11.4883C36.198 11.4883 36.9797 12.2609 37.0066 13.1145C37.0156 13.2402 36.9168 13.5367 36.791 13.7883C36.0183 15.3156 33.9789 14.8664 33.7543 13.1145C33.6914 12.6383 33.4757 12.3957 33.0355 12.3238C32.757 12.2789 32.6761 12.3148 32.4246 12.5574C32.1461 12.8359 32.1461 12.8629 32.2 13.393C32.3168 14.534 33.0984 15.6301 34.0867 16.0344L34.5 16.2051V16.7172C34.5 17.4 34.7605 17.7324 35.2996 17.7324C35.8297 17.7324 36.0363 17.4898 36.1082 16.7801C36.1621 16.223 36.1621 16.223 36.5215 16.0973C37.357 15.8188 38.2195 14.8664 38.4621 13.959C38.516 13.7613 38.5429 13.2762 38.525 12.8809C38.498 12.2789 38.4351 12.0723 38.1836 11.5961C37.6535 10.5988 36.9078 10.1137 35.5871 9.91602C34.6976 9.78125 34.5629 9.72734 34.2125 9.35898C33.7273 8.84688 33.6375 8.11016 34.0058 7.49024C34.2574 7.05 34.5 6.87031 35.0211 6.72656C35.9914 6.46602 37.0156 7.32852 37.0156 8.41563C37.0156 8.99063 37.8871 9.27813 38.3183 8.83789C38.6148 8.55039 38.6238 7.84961 38.3453 7.11289C38.0847 6.41211 37.2492 5.5586 36.5933 5.325L36.1351 5.16328L36.0992 4.64219C36.0543 4.04922 35.8746 3.79766 35.4433 3.7168C35.2906 3.68985 35.075 3.7168 34.9492 3.77969Z" fill="#F49D1A"/>
<path d="M12.8925 13.5817C11.4281 14.2825 11.0418 16.0614 12.1019 17.2383C12.641 17.8403 13.234 18.0829 14.0605 18.029C14.7793 17.984 15.2644 17.7684 15.6867 17.3102C16.1718 16.7981 16.3066 16.4567 16.3066 15.711C16.3066 14.9653 16.1718 14.6239 15.6867 14.1118C15.2465 13.6356 14.7793 13.4379 14.0156 13.402C13.4406 13.375 13.2699 13.402 12.8925 13.5817ZM14.4379 15.136C14.8961 15.4235 14.7972 16.1063 14.2761 16.3668C13.9257 16.5375 13.6023 16.4747 13.2789 16.1872C13.0632 15.9985 13.0632 15.4235 13.2789 15.2348C13.6472 14.9024 14.0156 14.8665 14.4379 15.136Z" fill="#F49D1A"/>
<path d="M13.207 19.9247C11.5359 20.4368 10.934 22.5571 12.1199 23.779C12.5781 24.2461 13.0543 24.4528 13.773 24.4977C14.5187 24.5426 15.0488 24.3629 15.5609 23.9047C16.118 23.4016 16.2977 22.9704 16.3066 22.1797C16.3066 21.6047 16.2707 21.443 16.0641 21.0836C15.7496 20.5626 15.2734 20.1583 14.7434 19.9786C14.3211 19.8348 13.5844 19.8079 13.207 19.9247ZM14.5098 21.6856C14.8871 22.054 14.7793 22.602 14.2762 22.8626C13.4855 23.2668 12.6769 22.2336 13.3418 21.6586C13.6742 21.3801 14.2223 21.3891 14.5098 21.6856Z" fill="#F49D1A"/>
<path d="M18.3281 21.4879C17.834 21.7394 17.7711 22.4582 18.2113 22.8086C18.4449 22.9883 18.5347 22.9883 23.7457 22.9703L29.0375 22.9434L29.2082 22.7277C29.3789 22.5211 29.4328 22.0629 29.325 21.7754C29.1722 21.3801 29.0465 21.3711 23.6558 21.3711C19.7207 21.3711 18.4988 21.398 18.3281 21.4879Z" fill="#F49D1A"/>
<path d="M12.9914 26.4922C12.4253 26.7168 11.9222 27.202 11.6707 27.786C11.5179 28.1454 11.491 28.352 11.5179 28.8282C11.5718 29.493 11.7336 29.8614 12.1738 30.3106C12.623 30.7598 12.9914 30.9125 13.6742 30.9665C14.4738 31.0204 14.9949 30.8676 15.507 30.4184C16.0011 29.9872 16.2617 29.493 16.3246 28.8731C16.5043 27.1391 14.6714 25.8364 12.9914 26.4922ZM14.5007 28.1543C14.7972 28.4329 14.8062 28.8192 14.5187 29.1606C13.9886 29.7805 12.8746 29.2055 13.1351 28.4418C13.3238 27.9028 14.0605 27.75 14.5007 28.1543Z" fill="#F49D1A"/>
<path d="M18.2113 28.1094C18.0855 28.2082 17.9598 28.4059 17.9238 28.5496C17.8609 28.8461 18.0586 29.3133 18.2832 29.4031C18.3641 29.4301 20.8078 29.457 23.7098 29.457H28.9926L29.1812 29.2504C29.4777 28.9359 29.4508 28.3609 29.1453 28.1184C28.9117 27.9297 28.8309 27.9297 23.6738 27.9297C18.5707 27.9297 18.4359 27.9297 18.2113 28.1094Z" fill="#F49D1A"/>
</svg>
