<svg width="46" height="46" viewBox="0 0 46 46" fill="none" xmlns="http://www.w3.org/2000/svg">
<path d="M23.4762 1.08707C22.7934 1.34762 22.0926 2.02145 21.7871 2.71325C21.0953 4.24059 21.7871 6.09137 23.2965 6.78317L23.8176 7.02575L23.7906 8.10387L23.7637 9.19098L22.9102 9.42458C20.5383 10.0894 18.3191 11.2394 16.3426 12.8297C15.6508 13.3867 13.8719 15.1746 13.6023 15.5789L13.4586 15.8125H10.0445H6.63047L6.36992 16.073C5.84883 16.6031 6.10938 17.5015 6.83711 17.6453C6.99883 17.6722 8.24766 17.6992 9.63125 17.6992C11.0148 17.6992 12.1289 17.7261 12.1109 17.7621C12.093 17.807 11.8504 18.2832 11.5809 18.8312C11.3023 19.3793 10.9789 20.098 10.8621 20.4304L10.6465 21.0234H5.67812C1.41953 21.0234 0.673828 21.0414 0.449219 21.1582C0.116797 21.3289 0 21.5445 0 22.0117C0 22.3082 0.0539062 22.4429 0.260547 22.6496L0.521094 22.9101H5.30977H10.0895L10.0266 23.2425C9.88281 24.0781 9.70312 25.5066 9.70312 25.8929V26.3242H7.51094H5.32773L5.08516 26.5578C4.75273 26.8992 4.75273 27.5461 5.08516 27.8875L5.32773 28.1211H7.51094C8.71484 28.1211 9.70312 28.148 9.70312 28.1929C9.70312 28.5972 10.0625 30.8703 10.2063 31.3734C10.2512 31.5261 10.0625 31.5351 7.1875 31.5351H4.11484L3.8543 31.7957C3.50391 32.1461 3.48594 32.748 3.80937 33.1254L4.025 33.3769L7.43906 33.4039L10.8441 33.4308L11.2215 34.3113C12.2188 36.6472 14.0785 39.1269 16.0641 40.798C21.9578 45.7304 30.1875 46.5031 36.8539 42.7566C37.941 42.1367 38.1836 41.9031 38.1836 41.4359C38.1836 40.9687 37.8512 40.5464 37.4199 40.4656C37.1504 40.4207 36.9707 40.4836 36.1441 40.9507C33.5027 42.4332 31.2566 43.08 28.3906 43.1879C26.7465 43.2418 25.3809 43.089 23.7457 42.6757C17.2949 41.0047 12.5152 35.5511 11.6797 28.8937C11.509 27.5281 11.6078 25.0125 11.8953 23.6648C13.252 17.25 18.2113 12.2816 24.5723 10.9789C28.1121 10.2511 31.6969 10.7093 34.9941 12.3086C39.9805 14.7254 43.3676 19.523 44.0234 25.0843C44.1672 26.2882 44.0953 28.7769 43.8887 29.8281C43.4844 31.8855 42.7926 33.7004 41.7414 35.4523C41.3371 36.1261 41.3012 36.6113 41.6516 36.9527C41.957 37.2582 42.3074 37.33 42.7027 37.1593C42.9633 37.0515 43.125 36.8539 43.5652 36.1172C44.5625 34.4191 45.3531 32.2898 45.7574 30.1875C45.9281 29.289 45.9551 28.8488 45.9551 26.8632C45.9551 24.698 45.9371 24.5093 45.7035 23.4043C45.2184 21.1402 44.3109 18.8761 43.1699 17.1152C40.798 13.4316 37.1055 10.6644 32.9727 9.47848L31.9395 9.182L31.9125 8.05895L31.8855 6.9359L32.1371 6.882C32.4785 6.80114 33.2512 6.26207 33.4848 5.94762C33.934 5.34567 34.0867 4.91442 34.1227 4.13278C34.1496 3.50387 34.1227 3.27926 33.9609 2.85699C33.7094 2.19215 33.1254 1.54528 32.4605 1.21286L31.9395 0.943325L27.9414 0.925354C24.1051 0.907387 23.9254 0.907387 23.4762 1.08707ZM31.6879 2.96481C32.2898 3.32418 32.4426 4.15973 32.0113 4.68082C31.5711 5.20192 31.5082 5.2109 27.8066 5.2109C24.5992 5.2109 24.4105 5.20192 24.0781 5.03122C23.6648 4.82457 23.4223 4.42028 23.4223 3.93512C23.4223 3.53082 23.6289 3.1984 24.0152 2.96481C24.2848 2.79411 24.4914 2.78512 27.8516 2.78512C31.2117 2.78512 31.4184 2.79411 31.6879 2.96481ZM30.0078 8.00504C30.0078 8.90348 30.0078 8.90348 29.8102 8.84059C29.5406 8.75075 26.1625 8.75075 25.902 8.84059C25.6953 8.90348 25.6953 8.90348 25.6953 8.00504V7.09762H27.8516H30.0078V8.00504Z" fill="#F49D1A"/>
<path d="M26.2973 13.0273C24.0602 13.3059 22.0207 14.0426 20.2598 15.1836C14.3031 19.0738 12.1918 26.7375 15.3184 33.1074C16.7379 36.0094 19.2984 38.4621 22.2004 39.7199C24.0422 40.5195 25.8031 40.8789 27.8785 40.8789C31.05 40.8789 33.8531 39.9266 36.3867 38.0039C37.2762 37.3211 38.6418 35.8926 39.3066 34.9582C41.8402 31.3465 42.5051 26.7105 41.0945 22.4789C40.0613 19.3434 37.8242 16.5941 34.9313 14.8691C33.5656 14.0605 31.9395 13.4586 30.2773 13.1621C29.3609 12.9914 27.1418 12.9195 26.2973 13.0273ZM30.0797 15.0488C33.7543 15.7586 36.9977 18.2203 38.6867 21.5895C40.0344 24.2488 40.2859 27.5371 39.3875 30.5199C39.082 31.5441 38.2106 33.2332 37.5188 34.1496C33.1344 39.9445 24.8059 40.6633 19.577 35.6859C16.8637 33.1074 15.4891 29.5406 15.8125 25.9289C16.082 22.9641 17.277 20.4484 19.4063 18.3281C21.3199 16.4234 23.7996 15.2465 26.6836 14.8781C27.2945 14.8062 29.343 14.9051 30.0797 15.0488Z" fill="#F49D1A"/>
<path d="M27.4562 16.4863C27.016 16.7199 26.9621 16.8726 26.9531 17.7531C26.9531 18.5078 26.9711 18.5886 27.1777 18.8043C27.4562 19.0828 27.7977 19.1547 28.2109 19.0199C28.6242 18.8761 28.8398 18.4539 28.8398 17.7621C28.8398 17.0523 28.6602 16.648 28.2648 16.4863C27.8695 16.3156 27.7797 16.3156 27.4562 16.4863Z" fill="#F49D1A"/>
<path d="M33.7363 19.7745C33.6375 19.8284 32.5504 20.8796 31.3105 22.1105L29.0645 24.3476L28.6242 24.2128C28.0672 24.0421 27.6359 24.0421 27.0789 24.2128L26.6387 24.3386L25.5605 23.2784C24.3836 22.1105 24.159 21.9937 23.602 22.2272C23.2156 22.38 23.0898 22.5956 23.0898 23.0987C23.0898 23.4671 23.1348 23.521 24.177 24.5812L25.2641 25.6772L25.1562 26.0187C25.0934 26.2073 25.0395 26.6296 25.0484 26.962C25.0484 28.0491 25.6145 28.9565 26.6117 29.4866C27.1777 29.7831 28.5254 29.7831 29.0914 29.4866C29.9449 29.0284 30.457 28.3456 30.6367 27.4202C30.7176 26.989 30.6457 26.2343 30.493 25.8479C30.448 25.7132 30.8883 25.219 32.757 23.3503L35.084 21.0233V20.6101C35.084 20.2597 35.0391 20.1608 34.7875 19.9362C34.482 19.6577 34.0688 19.5948 33.7363 19.7745ZM28.4984 26.3062C28.8758 26.6925 28.8668 27.2046 28.4895 27.5909C27.6629 28.4085 26.3781 27.1956 27.1598 26.3331C27.5641 25.9019 28.0852 25.8839 28.4984 26.3062Z" fill="#F49D1A"/>
<path d="M17.7711 26.0996C17.4477 26.2793 17.3398 26.4949 17.3398 26.9531C17.3398 27.2496 17.3937 27.3844 17.6004 27.591C17.852 27.8426 17.9059 27.8516 18.6336 27.8516C19.3613 27.8516 19.4242 27.8336 19.6937 27.591C19.9453 27.3664 19.9902 27.2676 19.9902 26.9172C19.9902 26.5938 19.9363 26.459 19.7387 26.2613C19.5141 26.0367 19.4242 26.0098 18.7504 25.9828C18.2203 25.9648 17.9418 26.0008 17.7711 26.0996Z" fill="#F49D1A"/>
<path d="M36.234 26.0996C35.9375 26.2254 35.668 26.6297 35.668 26.9531C35.668 27.2137 35.9105 27.6449 36.1082 27.7617C36.207 27.8066 36.6383 27.8516 37.0605 27.8516C37.7973 27.8516 37.8512 27.8426 38.1027 27.591C38.6238 27.0609 38.3633 26.1625 37.6355 26.0187C37.1773 25.9289 36.5395 25.9648 36.234 26.0996Z" fill="#F49D1A"/>
<path d="M27.2047 35.03C26.9082 35.2905 26.9082 35.2995 26.9082 36.1171C26.9082 36.9347 26.9082 36.9437 27.2047 37.2042C27.609 37.5726 28.1211 37.5726 28.4895 37.2042C28.741 36.9526 28.75 36.9077 28.75 36.1171C28.75 35.3265 28.741 35.2815 28.4895 35.03C28.1211 34.6616 27.609 34.6616 27.2047 35.03Z" fill="#F49D1A"/>
<path d="M0.485156 31.616C-4.01866e-07 31.8227 -0.170704 32.6492 0.179687 33.0895C0.521093 33.5207 1.34766 33.4848 1.66211 33.0266C1.86875 32.7391 1.83281 32.1281 1.59023 31.8496C1.37461 31.5891 0.817578 31.4723 0.485156 31.616Z" fill="#F49D1A"/>
<path d="M39.4234 38.4441C39.1719 38.6687 39.127 38.7675 39.127 39.1269C39.127 39.4863 39.1719 39.5851 39.4234 39.8097C39.7559 40.1062 40.1152 40.1421 40.5195 39.9355C40.852 39.7648 40.9687 39.5492 40.9687 39.1269C40.9687 38.7046 40.852 38.489 40.5195 38.3183C40.1152 38.1117 39.7559 38.1476 39.4234 38.4441Z" fill="#F49D1A"/>
</svg>
