<svg width="20" height="20" viewBox="0 0 20 20" fill="none" xmlns="http://www.w3.org/2000/svg">
<path d="M9.55078 0.52322C9.15234 0.706814 9.14844 0.714626 7.91406 3.66384C7.27344 5.18728 6.75391 6.37478 6.71875 6.39822C6.67969 6.42166 5.35938 6.54666 3.78516 6.67947C2.20703 6.81228 0.828126 6.94509 0.722658 6.97244C0.128908 7.14041 -0.179686 7.87088 0.0937514 8.46072C0.19922 8.68728 0.113283 8.60916 2.89844 11.0154C3.88281 11.8631 4.69531 12.5818 4.70703 12.6209C4.71875 12.656 4.42969 13.9607 4.0625 15.5193C3.69141 17.1131 3.39844 18.4373 3.39844 18.5428C3.39844 18.7928 3.57422 19.1678 3.77344 19.3279C4.04688 19.5545 4.49219 19.6365 4.82813 19.5154C4.91406 19.4881 6.05469 18.8123 7.3711 18.0154C8.6836 17.2185 9.8125 16.5388 9.87891 16.5037C9.99219 16.449 10.0117 16.449 10.125 16.5076C10.1953 16.5428 11.3242 17.2224 12.6328 18.0193C13.9453 18.8123 15.0859 19.4881 15.1719 19.5154C15.8516 19.7576 16.6016 19.2381 16.6016 18.5271C16.6016 18.4334 16.3008 17.0779 15.9336 15.5154C15.3438 13.0037 15.2734 12.6638 15.3203 12.5896C15.3477 12.5388 16.2422 11.7498 17.3047 10.8357C19.8828 8.61697 19.7969 8.69119 19.9063 8.46072C20.0352 8.18338 20.0352 7.79275 19.9063 7.51541C19.793 7.26931 19.5352 7.04666 19.2773 6.97244C19.168 6.94119 17.8086 6.81228 16.2109 6.67947C13.4727 6.449 13.3359 6.43728 13.2578 6.35525C13.2109 6.30838 12.6758 5.07791 12.0664 3.61697C10.8516 0.718533 10.8477 0.706814 10.4492 0.52322C10.3086 0.456814 10.1836 0.42947 10 0.42947C9.81641 0.42947 9.69141 0.456814 9.55078 0.52322Z" fill="#C2C2C2"/>
</svg>
