<svg width="40" height="40" viewBox="0 0 40 40" fill="none" xmlns="http://www.w3.org/2000/svg">
<path d="M16.3203 0.539062C13.25 1.21094 10.8359 3.66406 10.1953 6.75781C9.92969 8.0625 10.0781 9.98438 10.5391 11.1562C11.1094 12.5859 12.0859 13.8906 13.2188 14.7344L13.6719 15.0625L13.1406 15.2266C12.8438 15.3125 12.5391 15.4609 12.4609 15.5469C12.2422 15.7891 12.2656 16.2344 12.5 16.4219C12.7266 16.6094 12.9453 16.5938 14 16.2969C15.2656 15.9453 15.9844 15.8438 17.5547 15.8047C19.5 15.75 20.8906 15.9219 22.4922 16.4062C22.7656 16.4922 23.0703 16.5625 23.1797 16.5625C23.4375 16.5625 23.75 16.2344 23.75 15.9531C23.75 15.6094 23.5391 15.4297 22.9453 15.2344C22.6484 15.1406 22.4375 15.0391 22.4766 15.0078C22.5078 14.9766 22.7969 14.75 23.1094 14.5C23.625 14.0781 24.2266 13.4375 24.5391 12.9688C24.6641 12.7812 24.6719 12.7812 25.1641 12.8828C25.4375 12.9375 25.6719 12.9922 25.6797 13C25.6953 13.0156 25.6641 13.2266 25.6094 13.4844C25.4766 14.1719 25.5 15.6484 25.6562 16.25C26.0938 17.9609 27.4062 19.2109 29.1406 19.5781C29.9297 19.7422 31.0391 19.6875 31.6797 19.4453C32.2812 19.2188 32.8438 18.6641 33.1953 17.9375L33.4531 17.3906L33.6094 17.5859C34.1875 18.3047 34.7891 19.3984 35.1641 20.4141C35.5312 21.4141 35.7891 21.6328 37.1406 22.0781C38.8281 22.6328 38.8516 22.6797 38.8125 24.875C38.7812 26.875 38.8828 26.75 36.6172 27.4688C35.8594 27.7109 35.1172 27.9844 34.9766 28.0781C34.8438 28.1719 34.4844 28.6172 34.1797 29.0625C33.2266 30.5078 31.7734 31.8203 30.0469 32.8125C29.7109 33.0078 29.3594 33.2578 29.2812 33.3594C29.1875 33.4922 29.0078 34.2656 28.7109 35.8203C28.4766 37.0625 28.2812 38.1094 28.2812 38.1406C28.2812 38.1719 28.2266 38.25 28.1562 38.3125C28.0547 38.4141 27.8125 38.4375 26.6875 38.4375C25.7344 38.4375 25.3047 38.4062 25.2188 38.3438C25.1328 38.2734 25 37.7891 24.8125 36.8359C24.5547 35.5 24.5312 35.4219 24.2891 35.2031C24.0391 34.9844 24.0234 34.9766 23.3672 35.0234C23 35.0547 22.2891 35.1094 21.7969 35.1641C21.1953 35.2188 20.3438 35.2344 19.2188 35.1953C16.5391 35.1016 16.7656 35.0859 16.4922 35.3438C16.2422 35.5859 16.2188 35.6562 15.9062 37.3281C15.8047 37.8516 15.6953 38.3125 15.6719 38.3438C15.6406 38.375 14.9922 38.4062 14.2344 38.4219C13.1719 38.4375 12.8203 38.4219 12.7109 38.3438C12.6016 38.2578 12.4688 37.7344 12.1406 36.0156C11.8984 34.7891 11.6562 33.7109 11.6016 33.6172C11.5391 33.5234 11.1797 33.2656 10.8125 33.0469C8.11719 31.4688 6.5 29.2344 5.82031 26.1719C5.625 25.2656 5.57812 22.9844 5.73438 21.9062C6.20312 18.7344 7.84375 16.2344 10.5625 14.5625C10.7656 14.4375 10.9688 14.2422 11.0156 14.1328C11.1953 13.7109 10.9062 13.2812 10.4375 13.2812C10.1641 13.2812 8.97656 14.0547 8.17188 14.75C6.39062 16.2969 5.08594 18.5781 4.63281 20.9375C4.5625 21.3281 4.47656 21.6406 4.44531 21.6406C4.42188 21.6406 4.375 21.4297 4.35156 21.1641C4.27344 20.3203 3.70312 19.4375 3.00781 19.1016C2.83594 19.0234 2.5 18.9375 2.25781 18.9219C1.73438 18.8828 1.32812 19.0625 0.953125 19.4922C-0.132812 20.7266 0.445312 21.9766 2.35938 22.5L2.82812 22.625L2.46875 22.9844C2.01562 23.4375 1.41406 23.7422 0.78125 23.8281C0.171875 23.9141 0 24.0625 0 24.5C0 25.1172 0.515625 25.2969 1.52344 25.0391C1.77344 24.9688 2.15625 24.8203 2.375 24.7031C2.85938 24.4375 3.65625 23.6641 3.94531 23.1797C4.30469 22.5547 4.35156 22.6484 4.39844 24.2422C4.44531 25.7734 4.59375 26.7109 4.96875 27.8438C5.78906 30.3203 7.40625 32.3828 9.64844 33.8125C9.99219 34.0312 10.3359 34.2578 10.4141 34.3125C10.5156 34.3906 10.6484 34.9219 10.9688 36.5781C11.2031 37.7656 11.4297 38.7969 11.4688 38.8828C11.5938 39.1094 11.9688 39.4375 12.2109 39.5234C12.5078 39.6406 15.7734 39.6406 16.0703 39.5234C16.3359 39.4297 16.6953 39.0938 16.8359 38.8281C16.8906 38.7188 17.0312 38.1172 17.1484 37.4844L17.3672 36.3281L17.5703 36.3906C17.9141 36.4844 21.8594 36.4453 22.6484 36.3438C23.0469 36.2891 23.3906 36.2578 23.4141 36.2734C23.4297 36.2891 23.5469 36.8359 23.6719 37.4844C23.9219 38.8047 24.0156 39.0391 24.4297 39.3516L24.7109 39.5703L26.5703 39.5938C29.375 39.6328 29.2422 39.7578 29.875 36.4141C30.1094 35.1562 30.3125 34.1172 30.3281 34.1094C30.3438 34.1016 30.6172 33.9375 30.9375 33.75C32.5938 32.7969 34.1641 31.3516 35.125 29.9219L35.6719 29.1016L37.3281 28.5547C39.1719 27.9453 39.4453 27.7734 39.8125 26.9922C39.9922 26.6172 40 26.5391 40 24.6875C40 22.8438 39.9922 22.7578 39.8125 22.3828C39.4922 21.6875 39.0859 21.3984 37.8281 20.9844C37.2188 20.7812 36.6641 20.5625 36.6016 20.5C36.5391 20.4375 36.4297 20.2031 36.3516 19.9766C35.9688 18.8594 35.1328 17.4141 34.3047 16.4453C34.0859 16.1953 33.9062 15.9375 33.9062 15.8828C33.9062 15.8281 33.9609 15.4375 34.0391 15.0156C34.2188 13.9297 34.2188 11.8516 34.0391 11.1797C33.8594 10.5078 33.6406 10.1875 33.2578 9.98438C32.9766 9.84375 32.8438 9.82812 32.2266 9.86719C31.1719 9.92969 29.1797 10.5781 27.0859 11.5547L26.3984 11.8672L25.8594 11.75L25.3203 11.625L25.4766 11.2266C25.7344 10.5859 25.9453 9.54688 25.9609 8.92188C25.9766 8.40625 25.9609 8.33594 25.7891 8.19531C25.6875 8.11719 25.5078 8.04688 25.375 8.04688C25.0938 8.04688 24.7656 8.35938 24.7656 8.61719C24.7656 9.05469 24.5078 10.2109 24.2891 10.7812C23.6875 12.3594 22.3516 13.7734 20.8281 14.4531C20.4062 14.6406 20.2969 14.6562 19.8828 14.6016C19.2656 14.5234 16.9062 14.5234 16.2109 14.6016C15.75 14.6484 15.6094 14.6406 15.3203 14.5078C13.9375 13.8984 12.6641 12.6797 11.9688 11.2891C11.2031 9.75 11.0859 7.90625 11.6484 6.21875C12.2188 4.5 13.3984 3.14844 15.0391 2.33594C16.1953 1.76562 16.6016 1.67969 18.0859 1.67969C19.2422 1.6875 19.3906 1.70312 20 1.90625C21.5469 2.41406 22.8594 3.42188 23.6797 4.72656C24.1953 5.55469 24.2734 5.625 24.6094 5.625C24.8438 5.625 24.9453 5.57812 25.0703 5.42188C25.2891 5.14062 25.2734 4.98438 25 4.46094C24.0312 2.65625 22.3047 1.28906 20.1797 0.65625C19.2344 0.375 17.3438 0.3125 16.3203 0.539062ZM32.8203 11.4609C32.9766 11.9922 32.9531 13.9766 32.7812 14.9219C32.5312 16.3203 32.0938 17.5234 31.6562 17.9922C31.1016 18.5781 29.5 18.5781 28.4141 17.9922C27.875 17.6953 27.2344 16.9766 27.0391 16.4375C26.7656 15.7109 26.6875 14.9609 26.7969 14.0625C26.9141 13.1172 27.0156 12.9609 27.7266 12.6406C28.6797 12.2109 30.1094 11.6562 30.8984 11.4219C31.875 11.125 31.9141 11.1172 32.3516 11.1016L32.7109 11.0938L32.8203 11.4609ZM2.6875 20.4297C2.9375 20.6797 3.20312 21.2734 3.10938 21.3672C3.03906 21.4375 2.0625 21.1016 1.84375 20.9297C1.59375 20.7344 1.59375 20.6953 1.84375 20.3984C2.10938 20.0781 2.35156 20.0859 2.6875 20.4297Z" fill="white"/>
<path d="M18.1016 4.16406C18.0312 4.21875 17.9688 4.34375 17.9531 4.45312C17.9375 4.60938 17.875 4.65625 17.6016 4.70312C16.9375 4.8125 16.3672 5.24219 16.1406 5.79688C15.9844 6.17188 15.9844 6.95312 16.1406 7.32812C16.2031 7.48438 16.3516 7.71875 16.4688 7.84375C16.6719 8.0625 17.6641 8.59375 17.8672 8.59375C17.9453 8.59375 17.9688 8.86719 17.9688 9.77344V10.9531L17.7188 10.9062C17.4688 10.8594 17 10.6016 16.625 10.3047C16.3438 10.0703 16.0547 10.1562 15.8828 10.5078C15.7656 10.7578 15.7656 10.8047 15.8828 11.0469C16.1094 11.5312 16.75 11.8906 17.5781 12C17.9375 12.0469 17.9609 12.0625 17.9844 12.2969C18.0078 12.5156 18.0312 12.5391 18.2812 12.5391C18.5312 12.5391 18.5547 12.5156 18.5938 12.2656C18.625 12.0312 18.6641 11.9922 18.9297 11.9375C19.5938 11.7969 20.1484 11.3125 20.3594 10.6875C20.5156 10.2109 20.4766 9.22656 20.2891 8.85938C20.0859 8.46875 19.6094 8.0625 19.0859 7.83594L18.5938 7.625V6.625C18.5938 5.875 18.6172 5.625 18.6953 5.625C18.7422 5.625 19 5.71875 19.2578 5.82031C19.8516 6.0625 19.9531 6.0625 20.1484 5.8125C20.5938 5.25 20.1406 4.79688 18.9609 4.64062C18.6484 4.59375 18.6016 4.5625 18.5781 4.39062C18.5469 4.15625 18.2734 4.03125 18.1016 4.16406ZM17.9688 6.57031V7.42969L17.6484 7.25C17.0078 6.89062 16.9297 6.17969 17.4844 5.83594C17.9297 5.5625 17.9688 5.61719 17.9688 6.57031ZM19.2266 9.41406C19.4609 9.78125 19.4219 10.2578 19.1406 10.5703C19.0078 10.7188 18.8359 10.8594 18.75 10.8828C18.6016 10.9219 18.5938 10.8828 18.5938 9.90625V8.89844L18.8359 9.03906C18.9766 9.11719 19.1484 9.28125 19.2266 9.41406Z" fill="white"/>
<path d="M29.9687 21.2578C29.6016 21.5469 29.7187 22.3906 30.2031 22.9531C30.625 23.4453 31.0234 23.625 31.6797 23.625C32.3047 23.625 32.6875 23.4688 33.1016 23.0312C33.4297 22.6953 33.5937 22.2812 33.5937 21.8047C33.5937 21.4766 33.5625 21.3906 33.3906 21.2578C33.2734 21.1641 33.1016 21.0938 33.0078 21.0938C32.7266 21.0938 32.4375 21.375 32.3828 21.7031C32.3047 22.1484 32.0234 22.4219 31.6484 22.4219C31.4453 22.4219 31.0156 22.0547 31.0156 21.8828C31.0156 21.2344 30.4375 20.8906 29.9687 21.2578Z" fill="white"/>
</svg>
