<svg width="40" height="40" viewBox="0 0 40 40" fill="none" xmlns="http://www.w3.org/2000/svg">
<path d="M15.3281 0.171883C14.7188 0.50782 13.4688 2.29688 12.5625 4.12501L12.0078 5.23438L11.7031 4.67188C11.0781 3.51563 9.89062 1.87501 9.44531 1.54688C9.21094 1.3672 8.71875 1.28907 8.32031 1.35938C7.96875 1.4297 7.61719 1.73438 7.0625 2.47657C5.49219 4.56251 4.25781 7.22657 3.71094 9.72657C3.64844 10.0234 3.57812 10.3516 3.55469 10.4375C3.52344 10.5938 3.46094 10.6094 2.75 10.6406C2.07031 10.6641 1.91406 10.7031 1.46094 10.9219C0.898438 11.2031 0.5 11.6016 0.21875 12.1797L0.0390625 12.5391V25.3516V38.1641L0.226562 38.5156C0.476562 38.9922 0.976562 39.5 1.44531 39.75L1.83594 39.9609L19.2578 39.9844C38.3672 40 36.9766 40.0391 37.9297 39.5547C38.4297 39.2969 39.2969 38.4297 39.5469 37.9297C40.0312 36.9844 40 37.9375 40 23.6719C40 11.9844 39.9844 10.6094 39.875 10.2266C39.4141 8.66407 38.125 7.54688 36.5391 7.34376C34.4453 7.07813 32.5781 8.3672 32.0625 10.4297L32.0156 10.625H26.6797C21.6562 10.625 21.3359 10.6172 21.2969 10.4844C21.2812 10.4141 21.2422 10.1406 21.2109 9.88282C21.0078 8.07032 20.2578 5.70313 19.2812 3.8047C18.4609 2.20313 17.0859 0.312508 16.5938 0.109383C16.2031 -0.0546799 15.6953 -0.0234299 15.3281 0.171883ZM17.0469 2.85157C18.3672 4.8047 19.2812 7.08595 19.7344 9.57032C19.9297 10.6563 19.9688 12.9609 19.8047 14.0625C19.4531 16.4844 18.3828 18.125 16.9375 18.4766L16.7188 18.5313V17.1641C16.7188 15.8047 16.7188 15.7891 16.5156 15.5547C16.25 15.2344 15.7969 15.2109 15.5078 15.5078C15.3125 15.6953 15.3125 15.7109 15.3125 17.1094C15.3125 18.4219 15.3047 18.5156 15.1719 18.5156C14.9141 18.5156 14.1094 18.0625 13.8047 17.75L13.5 17.4453L13.7031 16.5469C14.25 14.1094 14.1094 11.1719 13.3125 8.54688C13.1641 8.03126 12.9922 7.48438 12.9453 7.32813C12.8672 7.07032 12.8906 6.96876 13.1641 6.27345C13.7578 4.75782 14.5312 3.3672 15.5 2.0547L15.9766 1.40626L16.1953 1.66407C16.3125 1.79688 16.6953 2.33595 17.0469 2.85157ZM9.24219 3.4922C10.9297 5.77345 12.0469 8.44532 12.4688 11.2109C12.6172 12.2422 12.6406 14.375 12.5078 15.2734C12.1641 17.5156 11.3594 19 10.1406 19.6094C9.35156 20 9.375 20.0234 9.375 18.7266V17.6172L10.3516 16.6406C11.2812 15.7109 11.3281 15.6484 11.3281 15.3438C11.3281 15.1172 11.2812 14.9844 11.1562 14.8672C10.6953 14.4453 10.4141 14.5625 9.4375 15.5313L8.67188 16.2813L7.90625 15.5313C7.04688 14.6797 6.82812 14.5625 6.42969 14.6953C6.125 14.7969 5.90625 15.1875 5.97656 15.4922C6.00781 15.5938 6.46094 16.1094 7 16.6484L7.96875 17.6172V18.7266C7.96875 20.0234 7.99219 20 7.20312 19.6094C6.03125 19.0156 5.21875 17.6172 4.86719 15.5469C4.69531 14.5391 4.70312 12.4297 4.875 11.2891C5.25 8.90626 6.10938 6.53907 7.30469 4.64845C7.83594 3.8047 8.57031 2.81251 8.66406 2.81251C8.70312 2.81251 8.96094 3.1172 9.24219 3.4922ZM36.9062 8.88282C37.4688 9.07813 38.0078 9.57032 38.3438 10.1953L38.5547 10.5859L38.5781 21.7344L38.5938 32.8828L38.2109 32.6172C37.4219 32.0938 36.3125 31.8594 35.3281 32.0313C34.8125 32.1172 33.9531 32.4766 33.5312 32.7813L33.3594 32.9141L33.375 21.8281L33.3984 10.7422L33.6016 10.3047C34.2109 9.00001 35.5781 8.41407 36.9062 8.88282ZM3.32812 13.5C3.34375 16.5625 3.96875 18.5781 5.3125 19.9297C6.03906 20.6641 6.78906 21.0781 7.75781 21.2891L7.96875 21.3281V24.8125V28.2891L8.16406 28.4766C8.39844 28.7188 8.88281 28.7422 9.14844 28.5234L9.33594 28.375L9.35938 24.8516L9.38281 21.3281L9.59375 21.2813C10.7891 21.0156 11.9844 20.2188 12.5938 19.2891C12.7266 19.0781 12.8516 18.9063 12.8672 18.9063C12.875 18.9063 13.0625 19.0313 13.2734 19.1797C13.7031 19.4922 14.3594 19.7969 14.7656 19.875C15.375 20 15.3125 19.6094 15.3125 23.4844V26.9609L15.5078 27.1484C15.6406 27.2891 15.7812 27.3438 16 27.3438C16.2656 27.3438 16.3438 27.3047 16.6562 27.0078C16.6641 27 16.6953 25.4141 16.7188 23.4844L16.7578 19.9766L17.1719 19.8828C18.3047 19.625 19.4922 18.7188 20.1406 17.6094C20.7734 16.5391 21.2188 14.9531 21.2969 13.4531C21.3203 13.0391 21.3516 12.5469 21.375 12.3594L21.4141 12.0313H22.3516H23.2812V20.4609C23.2812 26.25 23.2578 28.9688 23.1953 29.1172C23.0938 29.3906 22.8438 29.6641 22.5391 29.8281C22.3359 29.9453 21.8594 29.9688 18.8281 30.0078C15 30.0547 15 30.0547 13.8438 30.5938C12.4219 31.2422 11.2422 32.4297 10.5781 33.8672C10.1172 34.8594 10 35.5391 10 37.1641V38.5938H6.14062H2.28906L2.02344 38.4141C1.88281 38.3203 1.67969 38.1172 1.58594 37.9766L1.40625 37.7109L1.42188 25.2813L1.44531 12.8516L1.63281 12.5859C1.875 12.2422 2.35156 12.0313 2.89062 12.0313H3.32031L3.32812 13.5ZM27.9688 20.5469C27.9688 30.1797 27.9922 29.7344 27.3672 31.0156C26.875 32.0234 26.0391 32.875 25.0781 33.3438C23.8906 33.9297 23.8828 33.9297 20.0391 33.9766C16.6328 34.0234 16.6016 34.0234 16.1875 34.2109C15.6719 34.4453 14.9922 35.1641 14.8047 35.6797C14.6953 35.9609 14.6562 36.375 14.625 37.3203L14.5938 38.5938H13H11.4062V37.2422C11.4062 35.7031 11.5156 35.1406 12.0156 34.1797C12.3984 33.4297 13.4297 32.3984 14.1797 32.0156C15.2969 31.4375 15.5234 31.4063 18.9062 31.4063C22.0312 31.4063 22.6875 31.3594 23.2188 31.0859C23.7031 30.8359 24.1953 30.3359 24.4297 29.8516L24.6484 29.4141L24.6719 20.7188L24.6875 12.0313H26.3281H27.9688V20.5469ZM31.9688 24.4297L31.9922 36.8359L32.1797 37.3281C32.2812 37.6016 32.4766 38 32.6172 38.2109L32.8828 38.5938H24.4453H16.0156V37.5938C16.0156 37.0469 16.0547 36.4766 16.0938 36.3125C16.1797 36 16.6875 35.5 16.9688 35.4297C17.0703 35.4141 18.625 35.3828 20.4297 35.3672C24.0938 35.3359 24.2969 35.3125 25.5234 34.7266C27.5391 33.7734 28.9453 31.8984 29.2969 29.6875C29.3438 29.3672 29.375 26.0781 29.375 20.6016V12.0313H30.6641H31.9531L31.9688 24.4297ZM37.0781 33.625C37.5859 33.8594 38.1094 34.375 38.3672 34.8828C38.5234 35.2188 38.5547 35.3828 38.5547 36.0156C38.5547 36.6641 38.5234 36.8047 38.3438 37.1484C38.0938 37.6172 37.5859 38.1172 37.1094 38.3672C36.8125 38.5234 36.6406 38.5547 36.0156 38.5547C35.3828 38.5547 35.2188 38.5234 34.8828 38.3672C33.6094 37.7344 33.0391 36.2109 33.6172 34.9609C33.9766 34.1875 34.6328 33.6484 35.4453 33.4375C35.8828 33.3281 36.6094 33.4141 37.0781 33.625Z" fill="white"/>
<path d="M3.00781 33.375C2.67188 33.5547 2.65625 33.6328 2.65625 35.3281C2.65625 37.5156 2.49219 37.3438 4.66406 37.3438C5.82031 37.3359 6.32812 37.3125 6.41406 37.2422C6.75781 36.9766 6.78906 36.4141 6.47656 36.125C6.33594 36 6.15625 35.9766 5.1875 35.9531L4.0625 35.9297V34.9141C4.0625 34.1484 4.03125 33.8438 3.94531 33.6641C3.76562 33.3203 3.34375 33.1875 3.00781 33.375Z" fill="white"/>
</svg>
