<svg width="40" height="40" viewBox="0 0 40 40" fill="none" xmlns="http://www.w3.org/2000/svg">
<path d="M31.9141 0.117188C30.375 0.453125 28.9297 1.36719 28 2.60156C27.5703 3.16406 27.0156 4.28906 26.8437 4.96094C26.6406 5.71094 26.6016 6.89062 26.7422 7.59375C27.1562 9.57812 28.9141 12.8594 31.5 16.4766L32.4219 17.7656V18.4375C32.4219 19.5938 32.6562 20 33.3125 20C33.9766 20 34.2188 19.6016 34.2188 18.5156V17.8047L35.125 16.5312C37.3516 13.4219 38.9844 10.5547 39.6641 8.53125C40.4297 6.25781 39.875 3.84375 38.1797 2.05469C37.2422 1.07031 36.0234 0.382812 34.75 0.125C34.0234 -0.0234375 32.5781 -0.03125 31.9141 0.117188ZM34.7266 1.91406C35.6328 2.21875 36.125 2.52344 36.7969 3.20312C37.2734 3.67969 37.5312 4.01562 37.7109 4.375C38.1562 5.29688 38.2266 5.60156 38.2344 6.52344C38.2422 7.28125 38.2188 7.45312 38.0156 8.00781C37.4531 9.57812 36.0781 12.0312 34.3125 14.6094L33.3438 16.0156L33.1328 15.7266C31.6719 13.7031 30.1719 11.2734 29.375 9.64844C28.4453 7.75781 28.25 6.89844 28.4687 5.77344C28.8516 3.875 30.25 2.38281 32.125 1.875C32.8203 1.67969 34.1094 1.70312 34.7266 1.91406Z" fill="white"/>
<path d="M32.6016 5.125C31.5469 5.64844 31.3125 7.11719 32.1562 7.90625C32.9922 8.6875 34.3906 8.41406 34.8828 7.36719C34.9844 7.16406 35.0078 6.94531 34.9844 6.55469C34.9531 5.90625 34.6797 5.46094 34.1484 5.17969C33.7344 4.96094 32.9922 4.9375 32.6016 5.125Z" fill="white"/>
<path d="M8.82812 13.3672C6.59375 13.6016 4.4375 14.6328 2.875 16.2266C2.1875 16.9219 1.88281 17.3125 1.40625 18.0859C0.773437 19.1172 0.273437 20.5156 0.0859373 21.7734C-0.0390627 22.5703 -0.0234377 24.2109 0.117187 25.0547C0.625 28.1953 2.75 32.1797 6.02344 36.1406C6.84375 37.125 8.67969 39.1406 9.17969 39.6016L9.64062 40.0156L10.8438 39.9844L12.0469 39.9609L12.2734 39.7031C12.5938 39.3516 12.5938 38.8359 12.2812 38.5234L12.0625 38.3047L12.5312 37.8047C13.6875 36.5547 15.4297 34.3516 16.3906 32.9141C18.3125 30.0547 19.5078 27.3438 19.8828 25.0391C20.0234 24.1719 20.0391 22.5781 19.9141 21.7734C19.4453 18.6406 17.5547 15.9688 14.7578 14.4609C13.6875 13.8828 12.3594 13.4922 11.0234 13.3594C10.1172 13.2734 9.78125 13.2734 8.82812 13.3672ZM12.2266 15.3438C15.7266 16.3672 18.0781 19.3047 18.2578 22.8906C18.4219 26.1328 16.4766 30.3203 12.6641 34.9219C11.7734 36 10.0781 37.8906 10 37.8906C9.92188 37.8906 8.22656 36 7.33594 34.9219C4.23438 31.1797 2.28125 27.5312 1.83594 24.6484C1.42969 22.0859 2.19531 19.5391 3.90625 17.7109C4.92969 16.6172 6.10938 15.8672 7.49219 15.4375C8.47656 15.125 8.82812 15.0859 10.2344 15.1094C11.3516 15.1328 11.6172 15.1641 12.2266 15.3438Z" fill="white"/>
<path d="M8.94531 18.4062C7.09375 18.7969 5.53906 20.3125 5.10937 22.1484C4.92187 22.9609 4.99219 24.3125 5.25 25.0156C5.79687 26.4844 6.9375 27.6016 8.39844 28.1016C8.95312 28.2969 9.14062 28.3203 10 28.3203C10.8594 28.3203 11.0469 28.2969 11.6016 28.1016C13.0625 27.6016 14.2031 26.4844 14.75 25.0156C15.0078 24.3125 15.0781 22.9609 14.8906 22.1484C14.5547 20.7422 13.5547 19.4766 12.2656 18.8516C11.1719 18.3125 10.0859 18.1719 8.94531 18.4062ZM11.4219 20.4141C13.0625 21.2188 13.7266 23.0938 12.9453 24.7109C11.7344 27.2344 8.26562 27.2188 7.03906 24.6875C6.77344 24.1406 6.75781 24.0547 6.75781 23.3594C6.76562 22.4688 6.94531 21.9219 7.45312 21.3047C7.84375 20.8203 8.24219 20.5312 8.86719 20.2734C9.27344 20.1016 9.42969 20.0781 10.0859 20.0938C10.7656 20.1172 10.8828 20.1406 11.4219 20.4141Z" fill="white"/>
<path d="M32.1484 21.8672C32.0625 21.9063 31.875 22.0859 31.7266 22.2656C31.3828 22.6953 30.6797 23.0234 29.7891 23.1719C28.9844 23.3125 28.75 23.4531 28.6094 23.8906C28.5156 24.1719 28.5234 24.2422 28.6406 24.5C28.8906 25.0234 29.4141 25.1016 30.7031 24.7891C31.7891 24.5313 32.7656 23.9141 33.2109 23.2188C33.4063 22.9219 33.4375 22.7969 33.4063 22.5391C33.3359 21.9609 32.7188 21.6328 32.1484 21.8672Z" fill="white"/>
<path d="M25.1563 24.1953C24.5391 24.6094 24.0469 25.125 23.5547 25.8906C22.7891 27.0547 22.6563 27.5313 22.9766 27.9766C23.0625 28.1016 23.2578 28.2344 23.4375 28.2891C23.9375 28.4375 24.25 28.2266 24.6797 27.4453C25.125 26.6484 25.6563 26.0078 26.2031 25.6172C26.4297 25.4531 26.6641 25.2109 26.7188 25.0859C26.9531 24.5156 26.5313 23.9063 25.9141 23.9063C25.6641 23.9063 25.4766 23.9766 25.1563 24.1953Z" fill="white"/>
<path d="M22.0703 29.9766C21.7734 30.0547 21.5703 30.3359 21.2031 31.2031C21.0078 31.6797 20.6328 32.4688 20.3828 32.9609C19.8281 34.0312 19.7969 34.2656 20.1875 34.6562C20.3906 34.8594 20.5156 34.9219 20.7422 34.9219C21.0469 34.9219 21.3125 34.8125 21.4609 34.6172C21.8437 34.1406 23.0625 31.5156 23.1719 30.9375C23.2266 30.6875 23.0391 30.2344 22.8281 30.1094C22.6484 29.9922 22.2656 29.9297 22.0703 29.9766Z" fill="white"/>
<path d="M17.3516 36.4531C16.9063 36.7344 16.1328 37.1406 15.625 37.3594C14.9609 37.6328 14.6563 37.8047 14.5625 37.9531C14.4063 38.1797 14.3984 38.6484 14.5313 38.9062C14.6328 39.1016 15.0078 39.2969 15.2656 39.2969C15.8203 39.2969 17.8984 38.2969 18.7734 37.6172C19.1094 37.3516 19.2266 37.2031 19.2656 36.9922C19.375 36.3906 19.0391 35.9375 18.4766 35.9375C18.2109 35.9375 18.0078 36.0312 17.3516 36.4531Z" fill="white"/>
</svg>
